M48
; DRILL file {KiCad 9.0.2} date 2026-05-07T17:57:28+0300
; FORMAT={-:-/ absolute / metric / decimal}
; #@! TF.CreationDate,2026-05-07T17:57:28+03:00
; #@! TF.GenerationSoftware,Kicad,Pcbnew,9.0.2
; #@! TF.FileFunction,Plated,1,4,PTH
FMAT,2
METRIC
; #@! TA.AperFunction,Plated,PTH,ViaDrill
T1C0.400
; #@! TA.AperFunction,Plated,PTH,ViaDrill
T2C0.406
; #@! TA.AperFunction,Plated,PTH,ComponentDrill
T3C0.500
; #@! TA.AperFunction,Plated,PTH,ComponentDrill
T4C1.000
; #@! TA.AperFunction,Plated,PTH,ComponentDrill
T5C1.290
; #@! TA.AperFunction,Plated,PTH,ComponentDrill
T6C1.295
; #@! TA.AperFunction,Plated,PTH,ComponentDrill
T7C1.300
; #@! TA.AperFunction,Plated,PTH,ComponentDrill
T8C1.320
; #@! TA.AperFunction,Plated,PTH,ComponentDrill
T9C2.500
; #@! TA.AperFunction,Plated,PTH,ComponentDrill
T10C3.300
%
G90
G05
T1
X166.3Y-105.6
X167.5Y-117.75
X169.4Y-112.6
X170.4Y-118.2
X173.0Y-112.75
X173.9Y-100.1
X174.6Y-84.0
X174.6Y-103.2
X174.78Y-104.78
X174.8Y-82.75
X178.7Y-73.2
X179.0Y-113.6
X179.5Y-97.1
X180.05Y-74.5
X181.2Y-82.6
X181.8Y-73.5
X183.2Y-125.2
X183.9Y-92.1
X185.0Y-130.3
X185.7Y-86.0
X185.7Y-105.7
X187.0Y-110.8
X187.162Y-84.837
X188.0Y-96.2
X188.8Y-86.1
X188.8Y-99.8
X188.9Y-129.5
X189.0Y-89.8
X189.0Y-98.2
X189.8Y-93.8
X191.65Y-129.05
X192.9Y-70.1
X193.2Y-100.4
X194.4Y-97.5
X194.825Y-118.65
X195.5Y-87.9
X196.587Y-99.112
X199.4Y-82.7
X199.4Y-97.9
X199.8Y-106.5
X200.1Y-95.3
X200.4Y-119.4
X200.9Y-116.3
X202.55Y-73.75
X204.325Y-103.95
X204.695Y-67.595
X206.05Y-112.2
X209.0Y-84.7
X209.2Y-112.4
X210.4Y-93.6
X210.4Y-119.8
X211.4Y-101.3
X213.2Y-106.2
X213.4Y-97.8
X213.5Y-81.75
X214.0Y-107.6
X214.0Y-124.25
X214.25Y-102.5
X214.8Y-106.2
X215.25Y-104.75
X215.4Y-90.2
X216.5Y-94.5
X216.9Y-98.1
X218.0Y-100.2
X218.2Y-126.4
X218.4Y-92.6
X218.4Y-119.2
X218.45Y-90.25
X218.6Y-98.9
X218.75Y-84.25
X218.8Y-70.6
X219.75Y-95.0
X219.95Y-90.5
X220.05Y-81.0
X221.7Y-111.6
X221.9Y-129.4
X221.95Y-101.65
X222.1Y-109.1
X222.4Y-71.4
X222.5Y-98.4
X222.5Y-127.25
X222.55Y-81.25
X222.7Y-79.4
X222.7Y-100.4
X223.75Y-114.0
X224.25Y-135.75
X224.5Y-130.25
X225.0Y-99.4
X225.3Y-83.6
X225.6Y-89.1
X225.6Y-92.5
X225.8Y-123.4
X226.2Y-78.9
X226.8Y-106.9
X227.2Y-79.9
X227.2Y-91.7
X227.5Y-70.4
X227.5Y-97.5
X228.0Y-78.0
X228.0Y-109.2
X228.1Y-89.1
X228.3Y-99.8
X228.8Y-90.3
X229.3Y-80.4
X229.7Y-92.7
X229.8Y-118.5
X229.9Y-73.5
X230.0Y-109.2
X230.4Y-100.05
X230.6Y-70.2
X231.3Y-95.0
X231.6Y-100.8
X231.7Y-81.6
X231.7Y-85.9
X232.0Y-79.5
X232.2Y-83.2
X232.8Y-70.4
X234.3Y-114.25
X234.4Y-103.7
X235.2Y-77.2
X235.8Y-87.75
X237.4Y-88.725
X237.4Y-89.775
X237.6Y-94.8
X237.8Y-84.2
X238.0Y-101.6
X238.1Y-87.3
X238.4Y-56.0
X238.95Y-85.5
X239.675Y-77.575
X240.1Y-60.3
X240.5Y-106.575
X240.525Y-90.8
X242.025Y-98.05
X243.0Y-75.4
X243.771Y-85.857
X243.8Y-71.5
X243.9Y-86.8
X245.0Y-116.8
X245.3Y-78.0
X245.5Y-56.2
X247.6Y-58.0
X247.625Y-104.55
X249.4Y-122.497
X250.125Y-74.825
X250.2Y-78.6
X250.3Y-70.25
X251.25Y-67.55
X252.6Y-68.8
X253.4Y-65.25
T2
X221.0Y-54.6
X240.15Y-84.7
X249.6Y-95.8
T3
X168.125Y-55.0
X168.125Y-135.0
X168.674Y-53.674
X168.674Y-56.326
X168.674Y-133.674
X168.674Y-136.326
X170.0Y-53.125
X170.0Y-56.875
X170.0Y-133.125
X170.0Y-136.875
X171.326Y-53.674
X171.326Y-56.326
X171.326Y-133.674
X171.326Y-136.326
X171.875Y-55.0
X171.875Y-135.0
X248.125Y-55.0
X248.125Y-135.0
X248.674Y-53.674
X248.674Y-56.326
X248.674Y-133.674
X248.674Y-136.326
X250.0Y-53.125
X250.0Y-56.875
X250.0Y-133.125
X250.0Y-136.875
X251.326Y-53.674
X251.326Y-56.326
X251.326Y-133.674
X251.326Y-136.326
X251.875Y-55.0
X251.875Y-135.0
T4
X175.6Y-129.8
X175.6Y-132.34
X175.6Y-134.88
X181.925Y-138.3
X184.465Y-138.3
X186.71Y-62.145
X188.095Y-59.605
X189.48Y-62.145
X190.865Y-59.605
X192.25Y-62.145
X193.635Y-59.605
X195.02Y-62.145
X196.405Y-59.605
X197.79Y-62.145
X210.9Y-51.8
X213.44Y-51.8
X214.885Y-138.55
X215.98Y-51.8
X216.4Y-132.7
X216.4Y-135.6
X217.425Y-138.55
X218.94Y-132.7
X218.94Y-135.6
X221.25Y-138.5
X221.48Y-132.7
X221.48Y-135.6
X223.79Y-138.5
X224.62Y-51.5
X224.62Y-54.6
X227.16Y-51.5
X227.16Y-54.6
X229.7Y-51.5
X229.7Y-54.6
X250.3Y-110.44
X250.3Y-112.98
X250.3Y-115.52
X250.3Y-118.06
X250.3Y-120.6
X253.25Y-110.44
X253.25Y-112.98
X253.25Y-115.52
X253.25Y-118.06
X253.25Y-120.6
X253.3Y-92.06
X253.3Y-94.6
T5
X190.7Y-121.0
X227.9Y-121.25
T6
X251.2Y-98.16
X251.2Y-104.56
X251.2Y-107.1
T7
X193.5Y-135.305
X198.5Y-135.305
X203.5Y-135.305
X208.5Y-135.305
X228.4Y-135.3
X233.4Y-135.3
X238.4Y-135.3
X243.4Y-135.3
X251.2Y-100.7
T8
X192.7Y-115.0
X192.7Y-127.0
X204.9Y-115.0
X204.9Y-127.0
X229.9Y-115.25
X229.9Y-127.25
X242.1Y-115.25
X242.1Y-127.25
T9
X170.0Y-55.0
X170.0Y-135.0
X250.0Y-55.0
X250.0Y-135.0
T10
X179.755Y-60.875
X204.745Y-60.875
M30
