%TF.GenerationSoftware,KiCad,Pcbnew,9.0.2*%
%TF.CreationDate,2026-05-07T19:55:39+03:00*%
%TF.ProjectId,usb_relay_control,7573625f-7265-46c6-9179-5f636f6e7472,rev?*%
%TF.SameCoordinates,Original*%
%TF.FileFunction,Legend,Bot*%
%TF.FilePolarity,Positive*%
%FSLAX46Y46*%
G04 Gerber Fmt 4.6, Leading zero omitted, Abs format (unit mm)*
G04 Created by KiCad (PCBNEW 9.0.2) date 2026-05-07 19:55:39*
%MOMM*%
%LPD*%
G01*
G04 APERTURE LIST*
%ADD10C,0.127000*%
%ADD11C,0.203200*%
%ADD12C,0.150000*%
%ADD13C,0.180000*%
%ADD14C,0.101600*%
%ADD15C,0.140000*%
%ADD16C,0.508000*%
G04 APERTURE END LIST*
D10*
X240686429Y-138380922D02*
X240686429Y-137110922D01*
X240081667Y-137534255D02*
X240081667Y-138380922D01*
X240081667Y-137655207D02*
X240021190Y-137594731D01*
X240021190Y-137594731D02*
X239900238Y-137534255D01*
X239900238Y-137534255D02*
X239718809Y-137534255D01*
X239718809Y-137534255D02*
X239597857Y-137594731D01*
X239597857Y-137594731D02*
X239537381Y-137715684D01*
X239537381Y-137715684D02*
X239537381Y-138380922D01*
X238932619Y-137534255D02*
X238932619Y-138804255D01*
X238932619Y-137594731D02*
X238811666Y-137534255D01*
X238811666Y-137534255D02*
X238569761Y-137534255D01*
X238569761Y-137534255D02*
X238448809Y-137594731D01*
X238448809Y-137594731D02*
X238388333Y-137655207D01*
X238388333Y-137655207D02*
X238327857Y-137776160D01*
X238327857Y-137776160D02*
X238327857Y-138139017D01*
X238327857Y-138139017D02*
X238388333Y-138259969D01*
X238388333Y-138259969D02*
X238448809Y-138320446D01*
X238448809Y-138320446D02*
X238569761Y-138380922D01*
X238569761Y-138380922D02*
X238811666Y-138380922D01*
X238811666Y-138380922D02*
X238932619Y-138320446D01*
X237239285Y-137534255D02*
X237239285Y-138380922D01*
X237783571Y-137534255D02*
X237783571Y-138199493D01*
X237783571Y-138199493D02*
X237723094Y-138320446D01*
X237723094Y-138320446D02*
X237602142Y-138380922D01*
X237602142Y-138380922D02*
X237420713Y-138380922D01*
X237420713Y-138380922D02*
X237299761Y-138320446D01*
X237299761Y-138320446D02*
X237239285Y-138259969D01*
X236815951Y-137534255D02*
X236332142Y-137534255D01*
X236634523Y-137110922D02*
X236634523Y-138199493D01*
X236634523Y-138199493D02*
X236574046Y-138320446D01*
X236574046Y-138320446D02*
X236453094Y-138380922D01*
X236453094Y-138380922D02*
X236332142Y-138380922D01*
D11*
X173456546Y-88731618D02*
X172634069Y-88731618D01*
X172634069Y-88731618D02*
X172537307Y-88683237D01*
X172537307Y-88683237D02*
X172488927Y-88634856D01*
X172488927Y-88634856D02*
X172440546Y-88538094D01*
X172440546Y-88538094D02*
X172440546Y-88344570D01*
X172440546Y-88344570D02*
X172488927Y-88247808D01*
X172488927Y-88247808D02*
X172537307Y-88199427D01*
X172537307Y-88199427D02*
X172634069Y-88151046D01*
X172634069Y-88151046D02*
X173456546Y-88151046D01*
X172488927Y-87715618D02*
X172440546Y-87570475D01*
X172440546Y-87570475D02*
X172440546Y-87328570D01*
X172440546Y-87328570D02*
X172488927Y-87231808D01*
X172488927Y-87231808D02*
X172537307Y-87183427D01*
X172537307Y-87183427D02*
X172634069Y-87135046D01*
X172634069Y-87135046D02*
X172730831Y-87135046D01*
X172730831Y-87135046D02*
X172827593Y-87183427D01*
X172827593Y-87183427D02*
X172875974Y-87231808D01*
X172875974Y-87231808D02*
X172924355Y-87328570D01*
X172924355Y-87328570D02*
X172972736Y-87522094D01*
X172972736Y-87522094D02*
X173021117Y-87618856D01*
X173021117Y-87618856D02*
X173069498Y-87667237D01*
X173069498Y-87667237D02*
X173166260Y-87715618D01*
X173166260Y-87715618D02*
X173263022Y-87715618D01*
X173263022Y-87715618D02*
X173359784Y-87667237D01*
X173359784Y-87667237D02*
X173408165Y-87618856D01*
X173408165Y-87618856D02*
X173456546Y-87522094D01*
X173456546Y-87522094D02*
X173456546Y-87280189D01*
X173456546Y-87280189D02*
X173408165Y-87135046D01*
X172972736Y-86360951D02*
X172924355Y-86215808D01*
X172924355Y-86215808D02*
X172875974Y-86167427D01*
X172875974Y-86167427D02*
X172779212Y-86119046D01*
X172779212Y-86119046D02*
X172634069Y-86119046D01*
X172634069Y-86119046D02*
X172537307Y-86167427D01*
X172537307Y-86167427D02*
X172488927Y-86215808D01*
X172488927Y-86215808D02*
X172440546Y-86312570D01*
X172440546Y-86312570D02*
X172440546Y-86699618D01*
X172440546Y-86699618D02*
X173456546Y-86699618D01*
X173456546Y-86699618D02*
X173456546Y-86360951D01*
X173456546Y-86360951D02*
X173408165Y-86264189D01*
X173408165Y-86264189D02*
X173359784Y-86215808D01*
X173359784Y-86215808D02*
X173263022Y-86167427D01*
X173263022Y-86167427D02*
X173166260Y-86167427D01*
X173166260Y-86167427D02*
X173069498Y-86215808D01*
X173069498Y-86215808D02*
X173021117Y-86264189D01*
X173021117Y-86264189D02*
X172972736Y-86360951D01*
X172972736Y-86360951D02*
X172972736Y-86699618D01*
X173359784Y-85731999D02*
X173408165Y-85683618D01*
X173408165Y-85683618D02*
X173456546Y-85586856D01*
X173456546Y-85586856D02*
X173456546Y-85344951D01*
X173456546Y-85344951D02*
X173408165Y-85248189D01*
X173408165Y-85248189D02*
X173359784Y-85199808D01*
X173359784Y-85199808D02*
X173263022Y-85151427D01*
X173263022Y-85151427D02*
X173166260Y-85151427D01*
X173166260Y-85151427D02*
X173021117Y-85199808D01*
X173021117Y-85199808D02*
X172440546Y-85780380D01*
X172440546Y-85780380D02*
X172440546Y-85151427D01*
X173456546Y-83748380D02*
X173456546Y-83554856D01*
X173456546Y-83554856D02*
X173408165Y-83458094D01*
X173408165Y-83458094D02*
X173311403Y-83361332D01*
X173311403Y-83361332D02*
X173117879Y-83312951D01*
X173117879Y-83312951D02*
X172779212Y-83312951D01*
X172779212Y-83312951D02*
X172585688Y-83361332D01*
X172585688Y-83361332D02*
X172488927Y-83458094D01*
X172488927Y-83458094D02*
X172440546Y-83554856D01*
X172440546Y-83554856D02*
X172440546Y-83748380D01*
X172440546Y-83748380D02*
X172488927Y-83845142D01*
X172488927Y-83845142D02*
X172585688Y-83941904D01*
X172585688Y-83941904D02*
X172779212Y-83990285D01*
X172779212Y-83990285D02*
X173117879Y-83990285D01*
X173117879Y-83990285D02*
X173311403Y-83941904D01*
X173311403Y-83941904D02*
X173408165Y-83845142D01*
X173408165Y-83845142D02*
X173456546Y-83748380D01*
X173456546Y-82877523D02*
X172634069Y-82877523D01*
X172634069Y-82877523D02*
X172537307Y-82829142D01*
X172537307Y-82829142D02*
X172488927Y-82780761D01*
X172488927Y-82780761D02*
X172440546Y-82683999D01*
X172440546Y-82683999D02*
X172440546Y-82490475D01*
X172440546Y-82490475D02*
X172488927Y-82393713D01*
X172488927Y-82393713D02*
X172537307Y-82345332D01*
X172537307Y-82345332D02*
X172634069Y-82296951D01*
X172634069Y-82296951D02*
X173456546Y-82296951D01*
X173456546Y-81958285D02*
X173456546Y-81377713D01*
X172440546Y-81667999D02*
X173456546Y-81667999D01*
X172440546Y-81039047D02*
X173456546Y-81039047D01*
X173456546Y-81039047D02*
X173456546Y-80651999D01*
X173456546Y-80651999D02*
X173408165Y-80555237D01*
X173408165Y-80555237D02*
X173359784Y-80506856D01*
X173359784Y-80506856D02*
X173263022Y-80458475D01*
X173263022Y-80458475D02*
X173117879Y-80458475D01*
X173117879Y-80458475D02*
X173021117Y-80506856D01*
X173021117Y-80506856D02*
X172972736Y-80555237D01*
X172972736Y-80555237D02*
X172924355Y-80651999D01*
X172924355Y-80651999D02*
X172924355Y-81039047D01*
X173456546Y-80023047D02*
X172634069Y-80023047D01*
X172634069Y-80023047D02*
X172537307Y-79974666D01*
X172537307Y-79974666D02*
X172488927Y-79926285D01*
X172488927Y-79926285D02*
X172440546Y-79829523D01*
X172440546Y-79829523D02*
X172440546Y-79635999D01*
X172440546Y-79635999D02*
X172488927Y-79539237D01*
X172488927Y-79539237D02*
X172537307Y-79490856D01*
X172537307Y-79490856D02*
X172634069Y-79442475D01*
X172634069Y-79442475D02*
X173456546Y-79442475D01*
X173456546Y-79103809D02*
X173456546Y-78523237D01*
X172440546Y-78813523D02*
X173456546Y-78813523D01*
X193016427Y-66356006D02*
X193076903Y-66416483D01*
X193076903Y-66416483D02*
X193258332Y-66476959D01*
X193258332Y-66476959D02*
X193379284Y-66476959D01*
X193379284Y-66476959D02*
X193560713Y-66416483D01*
X193560713Y-66416483D02*
X193681665Y-66295530D01*
X193681665Y-66295530D02*
X193742142Y-66174578D01*
X193742142Y-66174578D02*
X193802618Y-65932673D01*
X193802618Y-65932673D02*
X193802618Y-65751244D01*
X193802618Y-65751244D02*
X193742142Y-65509340D01*
X193742142Y-65509340D02*
X193681665Y-65388387D01*
X193681665Y-65388387D02*
X193560713Y-65267435D01*
X193560713Y-65267435D02*
X193379284Y-65206959D01*
X193379284Y-65206959D02*
X193258332Y-65206959D01*
X193258332Y-65206959D02*
X193076903Y-65267435D01*
X193076903Y-65267435D02*
X193016427Y-65327911D01*
X192532618Y-66114102D02*
X191927856Y-66114102D01*
X192653570Y-66476959D02*
X192230237Y-65206959D01*
X192230237Y-65206959D02*
X191806903Y-66476959D01*
X191383571Y-66476959D02*
X191383571Y-65206959D01*
X191383571Y-65206959D02*
X190657856Y-66476959D01*
X190657856Y-66476959D02*
X190657856Y-65206959D01*
D12*
X249155363Y-103966776D02*
X248732030Y-105236776D01*
X248732030Y-105236776D02*
X248308696Y-103966776D01*
X247885364Y-105236776D02*
X247885364Y-103966776D01*
X247885364Y-103966776D02*
X247582983Y-103966776D01*
X247582983Y-103966776D02*
X247401554Y-104027252D01*
X247401554Y-104027252D02*
X247280602Y-104148204D01*
X247280602Y-104148204D02*
X247220125Y-104269157D01*
X247220125Y-104269157D02*
X247159649Y-104511061D01*
X247159649Y-104511061D02*
X247159649Y-104692490D01*
X247159649Y-104692490D02*
X247220125Y-104934395D01*
X247220125Y-104934395D02*
X247280602Y-105055347D01*
X247280602Y-105055347D02*
X247401554Y-105176300D01*
X247401554Y-105176300D02*
X247582983Y-105236776D01*
X247582983Y-105236776D02*
X247885364Y-105236776D01*
X246615364Y-105236776D02*
X246615364Y-103966776D01*
X246615364Y-103966776D02*
X246312983Y-103966776D01*
X246312983Y-103966776D02*
X246131554Y-104027252D01*
X246131554Y-104027252D02*
X246010602Y-104148204D01*
X246010602Y-104148204D02*
X245950125Y-104269157D01*
X245950125Y-104269157D02*
X245889649Y-104511061D01*
X245889649Y-104511061D02*
X245889649Y-104692490D01*
X245889649Y-104692490D02*
X245950125Y-104934395D01*
X245950125Y-104934395D02*
X246010602Y-105055347D01*
X246010602Y-105055347D02*
X246131554Y-105176300D01*
X246131554Y-105176300D02*
X246312983Y-105236776D01*
X246312983Y-105236776D02*
X246615364Y-105236776D01*
D13*
X245335735Y-90595238D02*
X245335735Y-90747619D01*
X245335735Y-90747619D02*
X245373830Y-90823809D01*
X245373830Y-90823809D02*
X245450020Y-90900000D01*
X245450020Y-90900000D02*
X245602401Y-90938095D01*
X245602401Y-90938095D02*
X245869068Y-90938095D01*
X245869068Y-90938095D02*
X246021449Y-90900000D01*
X246021449Y-90900000D02*
X246097640Y-90823809D01*
X246097640Y-90823809D02*
X246135735Y-90747619D01*
X246135735Y-90747619D02*
X246135735Y-90595238D01*
X246135735Y-90595238D02*
X246097640Y-90519047D01*
X246097640Y-90519047D02*
X246021449Y-90442857D01*
X246021449Y-90442857D02*
X245869068Y-90404761D01*
X245869068Y-90404761D02*
X245602401Y-90404761D01*
X245602401Y-90404761D02*
X245450020Y-90442857D01*
X245450020Y-90442857D02*
X245373830Y-90519047D01*
X245373830Y-90519047D02*
X245335735Y-90595238D01*
X245602401Y-91623809D02*
X246135735Y-91623809D01*
X245602401Y-91280952D02*
X246021449Y-91280952D01*
X246021449Y-91280952D02*
X246097640Y-91319047D01*
X246097640Y-91319047D02*
X246135735Y-91395237D01*
X246135735Y-91395237D02*
X246135735Y-91509523D01*
X246135735Y-91509523D02*
X246097640Y-91585714D01*
X246097640Y-91585714D02*
X246059544Y-91623809D01*
X245602401Y-91890476D02*
X245602401Y-92195238D01*
X245335735Y-92004762D02*
X246021449Y-92004762D01*
X246021449Y-92004762D02*
X246097640Y-92042857D01*
X246097640Y-92042857D02*
X246135735Y-92119047D01*
X246135735Y-92119047D02*
X246135735Y-92195238D01*
X245373830Y-93490476D02*
X245335735Y-93414286D01*
X245335735Y-93414286D02*
X245335735Y-93300000D01*
X245335735Y-93300000D02*
X245373830Y-93185714D01*
X245373830Y-93185714D02*
X245450020Y-93109524D01*
X245450020Y-93109524D02*
X245526211Y-93071429D01*
X245526211Y-93071429D02*
X245678592Y-93033333D01*
X245678592Y-93033333D02*
X245792878Y-93033333D01*
X245792878Y-93033333D02*
X245945259Y-93071429D01*
X245945259Y-93071429D02*
X246021449Y-93109524D01*
X246021449Y-93109524D02*
X246097640Y-93185714D01*
X246097640Y-93185714D02*
X246135735Y-93300000D01*
X246135735Y-93300000D02*
X246135735Y-93376191D01*
X246135735Y-93376191D02*
X246097640Y-93490476D01*
X246097640Y-93490476D02*
X246059544Y-93528572D01*
X246059544Y-93528572D02*
X245792878Y-93528572D01*
X245792878Y-93528572D02*
X245792878Y-93376191D01*
X246135735Y-93871429D02*
X245335735Y-93871429D01*
X245335735Y-93871429D02*
X245335735Y-94176191D01*
X245335735Y-94176191D02*
X245373830Y-94252381D01*
X245373830Y-94252381D02*
X245411925Y-94290476D01*
X245411925Y-94290476D02*
X245488116Y-94328572D01*
X245488116Y-94328572D02*
X245602401Y-94328572D01*
X245602401Y-94328572D02*
X245678592Y-94290476D01*
X245678592Y-94290476D02*
X245716687Y-94252381D01*
X245716687Y-94252381D02*
X245754782Y-94176191D01*
X245754782Y-94176191D02*
X245754782Y-93871429D01*
X246135735Y-94671429D02*
X245335735Y-94671429D01*
X245335735Y-95204762D02*
X245335735Y-95357143D01*
X245335735Y-95357143D02*
X245373830Y-95433333D01*
X245373830Y-95433333D02*
X245450020Y-95509524D01*
X245450020Y-95509524D02*
X245602401Y-95547619D01*
X245602401Y-95547619D02*
X245869068Y-95547619D01*
X245869068Y-95547619D02*
X246021449Y-95509524D01*
X246021449Y-95509524D02*
X246097640Y-95433333D01*
X246097640Y-95433333D02*
X246135735Y-95357143D01*
X246135735Y-95357143D02*
X246135735Y-95204762D01*
X246135735Y-95204762D02*
X246097640Y-95128571D01*
X246097640Y-95128571D02*
X246021449Y-95052381D01*
X246021449Y-95052381D02*
X245869068Y-95014285D01*
X245869068Y-95014285D02*
X245602401Y-95014285D01*
X245602401Y-95014285D02*
X245450020Y-95052381D01*
X245450020Y-95052381D02*
X245373830Y-95128571D01*
X245373830Y-95128571D02*
X245335735Y-95204762D01*
X246097640Y-95852380D02*
X246135735Y-95928571D01*
X246135735Y-95928571D02*
X246135735Y-96080952D01*
X246135735Y-96080952D02*
X246097640Y-96157142D01*
X246097640Y-96157142D02*
X246021449Y-96195238D01*
X246021449Y-96195238D02*
X245983354Y-96195238D01*
X245983354Y-96195238D02*
X245907163Y-96157142D01*
X245907163Y-96157142D02*
X245869068Y-96080952D01*
X245869068Y-96080952D02*
X245869068Y-95966666D01*
X245869068Y-95966666D02*
X245830973Y-95890476D01*
X245830973Y-95890476D02*
X245754782Y-95852380D01*
X245754782Y-95852380D02*
X245716687Y-95852380D01*
X245716687Y-95852380D02*
X245640497Y-95890476D01*
X245640497Y-95890476D02*
X245602401Y-95966666D01*
X245602401Y-95966666D02*
X245602401Y-96080952D01*
X245602401Y-96080952D02*
X245640497Y-96157142D01*
D11*
X244616483Y-113649761D02*
X244676959Y-113831190D01*
X244676959Y-113831190D02*
X244676959Y-114133571D01*
X244676959Y-114133571D02*
X244616483Y-114254523D01*
X244616483Y-114254523D02*
X244556006Y-114314999D01*
X244556006Y-114314999D02*
X244435054Y-114375476D01*
X244435054Y-114375476D02*
X244314102Y-114375476D01*
X244314102Y-114375476D02*
X244193149Y-114314999D01*
X244193149Y-114314999D02*
X244132673Y-114254523D01*
X244132673Y-114254523D02*
X244072197Y-114133571D01*
X244072197Y-114133571D02*
X244011721Y-113891666D01*
X244011721Y-113891666D02*
X243951244Y-113770714D01*
X243951244Y-113770714D02*
X243890768Y-113710237D01*
X243890768Y-113710237D02*
X243769816Y-113649761D01*
X243769816Y-113649761D02*
X243648863Y-113649761D01*
X243648863Y-113649761D02*
X243527911Y-113710237D01*
X243527911Y-113710237D02*
X243467435Y-113770714D01*
X243467435Y-113770714D02*
X243406959Y-113891666D01*
X243406959Y-113891666D02*
X243406959Y-114194047D01*
X243406959Y-114194047D02*
X243467435Y-114375476D01*
X244676959Y-114919761D02*
X243406959Y-114919761D01*
X243406959Y-114919761D02*
X243406959Y-115403571D01*
X243406959Y-115403571D02*
X243467435Y-115524523D01*
X243467435Y-115524523D02*
X243527911Y-115585000D01*
X243527911Y-115585000D02*
X243648863Y-115645476D01*
X243648863Y-115645476D02*
X243830292Y-115645476D01*
X243830292Y-115645476D02*
X243951244Y-115585000D01*
X243951244Y-115585000D02*
X244011721Y-115524523D01*
X244011721Y-115524523D02*
X244072197Y-115403571D01*
X244072197Y-115403571D02*
X244072197Y-114919761D01*
X244676959Y-116189761D02*
X243406959Y-116189761D01*
D12*
X243129819Y-97509524D02*
X243129819Y-98080952D01*
X244129819Y-97795238D02*
X243129819Y-97795238D01*
X244129819Y-98414286D02*
X243129819Y-98414286D01*
X244129819Y-98842857D02*
X243606009Y-98842857D01*
X243606009Y-98842857D02*
X243510771Y-98795238D01*
X243510771Y-98795238D02*
X243463152Y-98700000D01*
X243463152Y-98700000D02*
X243463152Y-98557143D01*
X243463152Y-98557143D02*
X243510771Y-98461905D01*
X243510771Y-98461905D02*
X243558390Y-98414286D01*
X244129819Y-99319048D02*
X243463152Y-99319048D01*
X243653628Y-99319048D02*
X243558390Y-99366667D01*
X243558390Y-99366667D02*
X243510771Y-99414286D01*
X243510771Y-99414286D02*
X243463152Y-99509524D01*
X243463152Y-99509524D02*
X243463152Y-99604762D01*
X244129819Y-99938096D02*
X243463152Y-99938096D01*
X243558390Y-99938096D02*
X243510771Y-99985715D01*
X243510771Y-99985715D02*
X243463152Y-100080953D01*
X243463152Y-100080953D02*
X243463152Y-100223810D01*
X243463152Y-100223810D02*
X243510771Y-100319048D01*
X243510771Y-100319048D02*
X243606009Y-100366667D01*
X243606009Y-100366667D02*
X244129819Y-100366667D01*
X243606009Y-100366667D02*
X243510771Y-100414286D01*
X243510771Y-100414286D02*
X243463152Y-100509524D01*
X243463152Y-100509524D02*
X243463152Y-100652381D01*
X243463152Y-100652381D02*
X243510771Y-100747620D01*
X243510771Y-100747620D02*
X243606009Y-100795239D01*
X243606009Y-100795239D02*
X244129819Y-100795239D01*
X244129819Y-101795238D02*
X244129819Y-101223810D01*
X244129819Y-101509524D02*
X243129819Y-101509524D01*
X243129819Y-101509524D02*
X243272676Y-101414286D01*
X243272676Y-101414286D02*
X243367914Y-101319048D01*
X243367914Y-101319048D02*
X243415533Y-101223810D01*
D10*
X231170238Y-137410922D02*
X230928333Y-137410922D01*
X230928333Y-137410922D02*
X230807381Y-137471398D01*
X230807381Y-137471398D02*
X230686428Y-137592350D01*
X230686428Y-137592350D02*
X230625952Y-137834255D01*
X230625952Y-137834255D02*
X230625952Y-138257588D01*
X230625952Y-138257588D02*
X230686428Y-138499493D01*
X230686428Y-138499493D02*
X230807381Y-138620446D01*
X230807381Y-138620446D02*
X230928333Y-138680922D01*
X230928333Y-138680922D02*
X231170238Y-138680922D01*
X231170238Y-138680922D02*
X231291190Y-138620446D01*
X231291190Y-138620446D02*
X231412143Y-138499493D01*
X231412143Y-138499493D02*
X231472619Y-138257588D01*
X231472619Y-138257588D02*
X231472619Y-137834255D01*
X231472619Y-137834255D02*
X231412143Y-137592350D01*
X231412143Y-137592350D02*
X231291190Y-137471398D01*
X231291190Y-137471398D02*
X231170238Y-137410922D01*
X229537381Y-137834255D02*
X229537381Y-138680922D01*
X230081667Y-137834255D02*
X230081667Y-138499493D01*
X230081667Y-138499493D02*
X230021190Y-138620446D01*
X230021190Y-138620446D02*
X229900238Y-138680922D01*
X229900238Y-138680922D02*
X229718809Y-138680922D01*
X229718809Y-138680922D02*
X229597857Y-138620446D01*
X229597857Y-138620446D02*
X229537381Y-138559969D01*
X229114047Y-137834255D02*
X228630238Y-137834255D01*
X228932619Y-137410922D02*
X228932619Y-138499493D01*
X228932619Y-138499493D02*
X228872142Y-138620446D01*
X228872142Y-138620446D02*
X228751190Y-138680922D01*
X228751190Y-138680922D02*
X228630238Y-138680922D01*
X228206905Y-137834255D02*
X228206905Y-139104255D01*
X228206905Y-137894731D02*
X228085952Y-137834255D01*
X228085952Y-137834255D02*
X227844047Y-137834255D01*
X227844047Y-137834255D02*
X227723095Y-137894731D01*
X227723095Y-137894731D02*
X227662619Y-137955207D01*
X227662619Y-137955207D02*
X227602143Y-138076160D01*
X227602143Y-138076160D02*
X227602143Y-138439017D01*
X227602143Y-138439017D02*
X227662619Y-138559969D01*
X227662619Y-138559969D02*
X227723095Y-138620446D01*
X227723095Y-138620446D02*
X227844047Y-138680922D01*
X227844047Y-138680922D02*
X228085952Y-138680922D01*
X228085952Y-138680922D02*
X228206905Y-138620446D01*
X226513571Y-137834255D02*
X226513571Y-138680922D01*
X227057857Y-137834255D02*
X227057857Y-138499493D01*
X227057857Y-138499493D02*
X226997380Y-138620446D01*
X226997380Y-138620446D02*
X226876428Y-138680922D01*
X226876428Y-138680922D02*
X226694999Y-138680922D01*
X226694999Y-138680922D02*
X226574047Y-138620446D01*
X226574047Y-138620446D02*
X226513571Y-138559969D01*
X226090237Y-137834255D02*
X225606428Y-137834255D01*
X225908809Y-137410922D02*
X225908809Y-138499493D01*
X225908809Y-138499493D02*
X225848332Y-138620446D01*
X225848332Y-138620446D02*
X225727380Y-138680922D01*
X225727380Y-138680922D02*
X225606428Y-138680922D01*
X189198809Y-136518065D02*
X188594047Y-136518065D01*
X189319761Y-136880922D02*
X188896428Y-135610922D01*
X188896428Y-135610922D02*
X188473094Y-136880922D01*
X188049762Y-136880922D02*
X188049762Y-135610922D01*
X188049762Y-135610922D02*
X187324047Y-136880922D01*
X187324047Y-136880922D02*
X187324047Y-135610922D01*
X186779762Y-136518065D02*
X186175000Y-136518065D01*
X186900714Y-136880922D02*
X186477381Y-135610922D01*
X186477381Y-135610922D02*
X186054047Y-136880922D01*
X185025953Y-136880922D02*
X185630715Y-136880922D01*
X185630715Y-136880922D02*
X185630715Y-135610922D01*
X184360715Y-135610922D02*
X184118810Y-135610922D01*
X184118810Y-135610922D02*
X183997858Y-135671398D01*
X183997858Y-135671398D02*
X183876905Y-135792350D01*
X183876905Y-135792350D02*
X183816429Y-136034255D01*
X183816429Y-136034255D02*
X183816429Y-136457588D01*
X183816429Y-136457588D02*
X183876905Y-136699493D01*
X183876905Y-136699493D02*
X183997858Y-136820446D01*
X183997858Y-136820446D02*
X184118810Y-136880922D01*
X184118810Y-136880922D02*
X184360715Y-136880922D01*
X184360715Y-136880922D02*
X184481667Y-136820446D01*
X184481667Y-136820446D02*
X184602620Y-136699493D01*
X184602620Y-136699493D02*
X184663096Y-136457588D01*
X184663096Y-136457588D02*
X184663096Y-136034255D01*
X184663096Y-136034255D02*
X184602620Y-135792350D01*
X184602620Y-135792350D02*
X184481667Y-135671398D01*
X184481667Y-135671398D02*
X184360715Y-135610922D01*
X182606905Y-135671398D02*
X182727858Y-135610922D01*
X182727858Y-135610922D02*
X182909286Y-135610922D01*
X182909286Y-135610922D02*
X183090715Y-135671398D01*
X183090715Y-135671398D02*
X183211667Y-135792350D01*
X183211667Y-135792350D02*
X183272144Y-135913303D01*
X183272144Y-135913303D02*
X183332620Y-136155207D01*
X183332620Y-136155207D02*
X183332620Y-136336636D01*
X183332620Y-136336636D02*
X183272144Y-136578541D01*
X183272144Y-136578541D02*
X183211667Y-136699493D01*
X183211667Y-136699493D02*
X183090715Y-136820446D01*
X183090715Y-136820446D02*
X182909286Y-136880922D01*
X182909286Y-136880922D02*
X182788334Y-136880922D01*
X182788334Y-136880922D02*
X182606905Y-136820446D01*
X182606905Y-136820446D02*
X182546429Y-136759969D01*
X182546429Y-136759969D02*
X182546429Y-136336636D01*
X182546429Y-136336636D02*
X182788334Y-136336636D01*
X182304525Y-137001874D02*
X181336905Y-137001874D01*
X181034525Y-136880922D02*
X181034525Y-135610922D01*
X180429763Y-136034255D02*
X180429763Y-136880922D01*
X180429763Y-136155207D02*
X180369286Y-136094731D01*
X180369286Y-136094731D02*
X180248334Y-136034255D01*
X180248334Y-136034255D02*
X180066905Y-136034255D01*
X180066905Y-136034255D02*
X179945953Y-136094731D01*
X179945953Y-136094731D02*
X179885477Y-136215684D01*
X179885477Y-136215684D02*
X179885477Y-136880922D01*
X179280715Y-136034255D02*
X179280715Y-137304255D01*
X179280715Y-136094731D02*
X179159762Y-136034255D01*
X179159762Y-136034255D02*
X178917857Y-136034255D01*
X178917857Y-136034255D02*
X178796905Y-136094731D01*
X178796905Y-136094731D02*
X178736429Y-136155207D01*
X178736429Y-136155207D02*
X178675953Y-136276160D01*
X178675953Y-136276160D02*
X178675953Y-136639017D01*
X178675953Y-136639017D02*
X178736429Y-136759969D01*
X178736429Y-136759969D02*
X178796905Y-136820446D01*
X178796905Y-136820446D02*
X178917857Y-136880922D01*
X178917857Y-136880922D02*
X179159762Y-136880922D01*
X179159762Y-136880922D02*
X179280715Y-136820446D01*
X177587381Y-136034255D02*
X177587381Y-136880922D01*
X178131667Y-136034255D02*
X178131667Y-136699493D01*
X178131667Y-136699493D02*
X178071190Y-136820446D01*
X178071190Y-136820446D02*
X177950238Y-136880922D01*
X177950238Y-136880922D02*
X177768809Y-136880922D01*
X177768809Y-136880922D02*
X177647857Y-136820446D01*
X177647857Y-136820446D02*
X177587381Y-136759969D01*
X177164047Y-136034255D02*
X176680238Y-136034255D01*
X176982619Y-135610922D02*
X176982619Y-136699493D01*
X176982619Y-136699493D02*
X176922142Y-136820446D01*
X176922142Y-136820446D02*
X176801190Y-136880922D01*
X176801190Y-136880922D02*
X176680238Y-136880922D01*
D12*
X243429819Y-103359524D02*
X243429819Y-103930952D01*
X244429819Y-103645238D02*
X243429819Y-103645238D01*
X244429819Y-104264286D02*
X243429819Y-104264286D01*
X244429819Y-104692857D02*
X243906009Y-104692857D01*
X243906009Y-104692857D02*
X243810771Y-104645238D01*
X243810771Y-104645238D02*
X243763152Y-104550000D01*
X243763152Y-104550000D02*
X243763152Y-104407143D01*
X243763152Y-104407143D02*
X243810771Y-104311905D01*
X243810771Y-104311905D02*
X243858390Y-104264286D01*
X244429819Y-105169048D02*
X243763152Y-105169048D01*
X243953628Y-105169048D02*
X243858390Y-105216667D01*
X243858390Y-105216667D02*
X243810771Y-105264286D01*
X243810771Y-105264286D02*
X243763152Y-105359524D01*
X243763152Y-105359524D02*
X243763152Y-105454762D01*
X244429819Y-105788096D02*
X243763152Y-105788096D01*
X243858390Y-105788096D02*
X243810771Y-105835715D01*
X243810771Y-105835715D02*
X243763152Y-105930953D01*
X243763152Y-105930953D02*
X243763152Y-106073810D01*
X243763152Y-106073810D02*
X243810771Y-106169048D01*
X243810771Y-106169048D02*
X243906009Y-106216667D01*
X243906009Y-106216667D02*
X244429819Y-106216667D01*
X243906009Y-106216667D02*
X243810771Y-106264286D01*
X243810771Y-106264286D02*
X243763152Y-106359524D01*
X243763152Y-106359524D02*
X243763152Y-106502381D01*
X243763152Y-106502381D02*
X243810771Y-106597620D01*
X243810771Y-106597620D02*
X243906009Y-106645239D01*
X243906009Y-106645239D02*
X244429819Y-106645239D01*
X243525057Y-107073810D02*
X243477438Y-107121429D01*
X243477438Y-107121429D02*
X243429819Y-107216667D01*
X243429819Y-107216667D02*
X243429819Y-107454762D01*
X243429819Y-107454762D02*
X243477438Y-107550000D01*
X243477438Y-107550000D02*
X243525057Y-107597619D01*
X243525057Y-107597619D02*
X243620295Y-107645238D01*
X243620295Y-107645238D02*
X243715533Y-107645238D01*
X243715533Y-107645238D02*
X243858390Y-107597619D01*
X243858390Y-107597619D02*
X244429819Y-107026191D01*
X244429819Y-107026191D02*
X244429819Y-107645238D01*
D10*
X244467618Y-137471398D02*
X244588571Y-137410922D01*
X244588571Y-137410922D02*
X244769999Y-137410922D01*
X244769999Y-137410922D02*
X244951428Y-137471398D01*
X244951428Y-137471398D02*
X245072380Y-137592350D01*
X245072380Y-137592350D02*
X245132857Y-137713303D01*
X245132857Y-137713303D02*
X245193333Y-137955207D01*
X245193333Y-137955207D02*
X245193333Y-138136636D01*
X245193333Y-138136636D02*
X245132857Y-138378541D01*
X245132857Y-138378541D02*
X245072380Y-138499493D01*
X245072380Y-138499493D02*
X244951428Y-138620446D01*
X244951428Y-138620446D02*
X244769999Y-138680922D01*
X244769999Y-138680922D02*
X244649047Y-138680922D01*
X244649047Y-138680922D02*
X244467618Y-138620446D01*
X244467618Y-138620446D02*
X244407142Y-138559969D01*
X244407142Y-138559969D02*
X244407142Y-138136636D01*
X244407142Y-138136636D02*
X244649047Y-138136636D01*
X243862857Y-138680922D02*
X243862857Y-137410922D01*
X243862857Y-137410922D02*
X243137142Y-138680922D01*
X243137142Y-138680922D02*
X243137142Y-137410922D01*
X242532381Y-138680922D02*
X242532381Y-137410922D01*
X242532381Y-137410922D02*
X242230000Y-137410922D01*
X242230000Y-137410922D02*
X242048571Y-137471398D01*
X242048571Y-137471398D02*
X241927619Y-137592350D01*
X241927619Y-137592350D02*
X241867142Y-137713303D01*
X241867142Y-137713303D02*
X241806666Y-137955207D01*
X241806666Y-137955207D02*
X241806666Y-138136636D01*
X241806666Y-138136636D02*
X241867142Y-138378541D01*
X241867142Y-138378541D02*
X241927619Y-138499493D01*
X241927619Y-138499493D02*
X242048571Y-138620446D01*
X242048571Y-138620446D02*
X242230000Y-138680922D01*
X242230000Y-138680922D02*
X242532381Y-138680922D01*
D11*
X173556546Y-123554285D02*
X172734069Y-123554285D01*
X172734069Y-123554285D02*
X172637307Y-123505904D01*
X172637307Y-123505904D02*
X172588927Y-123457523D01*
X172588927Y-123457523D02*
X172540546Y-123360761D01*
X172540546Y-123360761D02*
X172540546Y-123167237D01*
X172540546Y-123167237D02*
X172588927Y-123070475D01*
X172588927Y-123070475D02*
X172637307Y-123022094D01*
X172637307Y-123022094D02*
X172734069Y-122973713D01*
X172734069Y-122973713D02*
X173556546Y-122973713D01*
X172588927Y-122538285D02*
X172540546Y-122393142D01*
X172540546Y-122393142D02*
X172540546Y-122151237D01*
X172540546Y-122151237D02*
X172588927Y-122054475D01*
X172588927Y-122054475D02*
X172637307Y-122006094D01*
X172637307Y-122006094D02*
X172734069Y-121957713D01*
X172734069Y-121957713D02*
X172830831Y-121957713D01*
X172830831Y-121957713D02*
X172927593Y-122006094D01*
X172927593Y-122006094D02*
X172975974Y-122054475D01*
X172975974Y-122054475D02*
X173024355Y-122151237D01*
X173024355Y-122151237D02*
X173072736Y-122344761D01*
X173072736Y-122344761D02*
X173121117Y-122441523D01*
X173121117Y-122441523D02*
X173169498Y-122489904D01*
X173169498Y-122489904D02*
X173266260Y-122538285D01*
X173266260Y-122538285D02*
X173363022Y-122538285D01*
X173363022Y-122538285D02*
X173459784Y-122489904D01*
X173459784Y-122489904D02*
X173508165Y-122441523D01*
X173508165Y-122441523D02*
X173556546Y-122344761D01*
X173556546Y-122344761D02*
X173556546Y-122102856D01*
X173556546Y-122102856D02*
X173508165Y-121957713D01*
X173072736Y-121183618D02*
X173024355Y-121038475D01*
X173024355Y-121038475D02*
X172975974Y-120990094D01*
X172975974Y-120990094D02*
X172879212Y-120941713D01*
X172879212Y-120941713D02*
X172734069Y-120941713D01*
X172734069Y-120941713D02*
X172637307Y-120990094D01*
X172637307Y-120990094D02*
X172588927Y-121038475D01*
X172588927Y-121038475D02*
X172540546Y-121135237D01*
X172540546Y-121135237D02*
X172540546Y-121522285D01*
X172540546Y-121522285D02*
X173556546Y-121522285D01*
X173556546Y-121522285D02*
X173556546Y-121183618D01*
X173556546Y-121183618D02*
X173508165Y-121086856D01*
X173508165Y-121086856D02*
X173459784Y-121038475D01*
X173459784Y-121038475D02*
X173363022Y-120990094D01*
X173363022Y-120990094D02*
X173266260Y-120990094D01*
X173266260Y-120990094D02*
X173169498Y-121038475D01*
X173169498Y-121038475D02*
X173121117Y-121086856D01*
X173121117Y-121086856D02*
X173072736Y-121183618D01*
X173072736Y-121183618D02*
X173072736Y-121522285D01*
X172540546Y-119974094D02*
X172540546Y-120554666D01*
X172540546Y-120264380D02*
X173556546Y-120264380D01*
X173556546Y-120264380D02*
X173411403Y-120361142D01*
X173411403Y-120361142D02*
X173314641Y-120457904D01*
X173314641Y-120457904D02*
X173266260Y-120554666D01*
X172540546Y-118764571D02*
X173556546Y-118764571D01*
X172540546Y-118280761D02*
X173556546Y-118280761D01*
X173556546Y-118280761D02*
X172540546Y-117700189D01*
X172540546Y-117700189D02*
X173556546Y-117700189D01*
X172540546Y-117216380D02*
X173556546Y-117216380D01*
X173556546Y-117216380D02*
X173556546Y-116829332D01*
X173556546Y-116829332D02*
X173508165Y-116732570D01*
X173508165Y-116732570D02*
X173459784Y-116684189D01*
X173459784Y-116684189D02*
X173363022Y-116635808D01*
X173363022Y-116635808D02*
X173217879Y-116635808D01*
X173217879Y-116635808D02*
X173121117Y-116684189D01*
X173121117Y-116684189D02*
X173072736Y-116732570D01*
X173072736Y-116732570D02*
X173024355Y-116829332D01*
X173024355Y-116829332D02*
X173024355Y-117216380D01*
X173556546Y-116200380D02*
X172734069Y-116200380D01*
X172734069Y-116200380D02*
X172637307Y-116151999D01*
X172637307Y-116151999D02*
X172588927Y-116103618D01*
X172588927Y-116103618D02*
X172540546Y-116006856D01*
X172540546Y-116006856D02*
X172540546Y-115813332D01*
X172540546Y-115813332D02*
X172588927Y-115716570D01*
X172588927Y-115716570D02*
X172637307Y-115668189D01*
X172637307Y-115668189D02*
X172734069Y-115619808D01*
X172734069Y-115619808D02*
X173556546Y-115619808D01*
X173556546Y-115281142D02*
X173556546Y-114700570D01*
X172540546Y-114990856D02*
X173556546Y-114990856D01*
X173556546Y-107131618D02*
X172734069Y-107131618D01*
X172734069Y-107131618D02*
X172637307Y-107083237D01*
X172637307Y-107083237D02*
X172588927Y-107034856D01*
X172588927Y-107034856D02*
X172540546Y-106938094D01*
X172540546Y-106938094D02*
X172540546Y-106744570D01*
X172540546Y-106744570D02*
X172588927Y-106647808D01*
X172588927Y-106647808D02*
X172637307Y-106599427D01*
X172637307Y-106599427D02*
X172734069Y-106551046D01*
X172734069Y-106551046D02*
X173556546Y-106551046D01*
X172588927Y-106115618D02*
X172540546Y-105970475D01*
X172540546Y-105970475D02*
X172540546Y-105728570D01*
X172540546Y-105728570D02*
X172588927Y-105631808D01*
X172588927Y-105631808D02*
X172637307Y-105583427D01*
X172637307Y-105583427D02*
X172734069Y-105535046D01*
X172734069Y-105535046D02*
X172830831Y-105535046D01*
X172830831Y-105535046D02*
X172927593Y-105583427D01*
X172927593Y-105583427D02*
X172975974Y-105631808D01*
X172975974Y-105631808D02*
X173024355Y-105728570D01*
X173024355Y-105728570D02*
X173072736Y-105922094D01*
X173072736Y-105922094D02*
X173121117Y-106018856D01*
X173121117Y-106018856D02*
X173169498Y-106067237D01*
X173169498Y-106067237D02*
X173266260Y-106115618D01*
X173266260Y-106115618D02*
X173363022Y-106115618D01*
X173363022Y-106115618D02*
X173459784Y-106067237D01*
X173459784Y-106067237D02*
X173508165Y-106018856D01*
X173508165Y-106018856D02*
X173556546Y-105922094D01*
X173556546Y-105922094D02*
X173556546Y-105680189D01*
X173556546Y-105680189D02*
X173508165Y-105535046D01*
X173072736Y-104760951D02*
X173024355Y-104615808D01*
X173024355Y-104615808D02*
X172975974Y-104567427D01*
X172975974Y-104567427D02*
X172879212Y-104519046D01*
X172879212Y-104519046D02*
X172734069Y-104519046D01*
X172734069Y-104519046D02*
X172637307Y-104567427D01*
X172637307Y-104567427D02*
X172588927Y-104615808D01*
X172588927Y-104615808D02*
X172540546Y-104712570D01*
X172540546Y-104712570D02*
X172540546Y-105099618D01*
X172540546Y-105099618D02*
X173556546Y-105099618D01*
X173556546Y-105099618D02*
X173556546Y-104760951D01*
X173556546Y-104760951D02*
X173508165Y-104664189D01*
X173508165Y-104664189D02*
X173459784Y-104615808D01*
X173459784Y-104615808D02*
X173363022Y-104567427D01*
X173363022Y-104567427D02*
X173266260Y-104567427D01*
X173266260Y-104567427D02*
X173169498Y-104615808D01*
X173169498Y-104615808D02*
X173121117Y-104664189D01*
X173121117Y-104664189D02*
X173072736Y-104760951D01*
X173072736Y-104760951D02*
X173072736Y-105099618D01*
X172540546Y-103551427D02*
X172540546Y-104131999D01*
X172540546Y-103841713D02*
X173556546Y-103841713D01*
X173556546Y-103841713D02*
X173411403Y-103938475D01*
X173411403Y-103938475D02*
X173314641Y-104035237D01*
X173314641Y-104035237D02*
X173266260Y-104131999D01*
X173556546Y-102148380D02*
X173556546Y-101954856D01*
X173556546Y-101954856D02*
X173508165Y-101858094D01*
X173508165Y-101858094D02*
X173411403Y-101761332D01*
X173411403Y-101761332D02*
X173217879Y-101712951D01*
X173217879Y-101712951D02*
X172879212Y-101712951D01*
X172879212Y-101712951D02*
X172685688Y-101761332D01*
X172685688Y-101761332D02*
X172588927Y-101858094D01*
X172588927Y-101858094D02*
X172540546Y-101954856D01*
X172540546Y-101954856D02*
X172540546Y-102148380D01*
X172540546Y-102148380D02*
X172588927Y-102245142D01*
X172588927Y-102245142D02*
X172685688Y-102341904D01*
X172685688Y-102341904D02*
X172879212Y-102390285D01*
X172879212Y-102390285D02*
X173217879Y-102390285D01*
X173217879Y-102390285D02*
X173411403Y-102341904D01*
X173411403Y-102341904D02*
X173508165Y-102245142D01*
X173508165Y-102245142D02*
X173556546Y-102148380D01*
X173556546Y-101277523D02*
X172734069Y-101277523D01*
X172734069Y-101277523D02*
X172637307Y-101229142D01*
X172637307Y-101229142D02*
X172588927Y-101180761D01*
X172588927Y-101180761D02*
X172540546Y-101083999D01*
X172540546Y-101083999D02*
X172540546Y-100890475D01*
X172540546Y-100890475D02*
X172588927Y-100793713D01*
X172588927Y-100793713D02*
X172637307Y-100745332D01*
X172637307Y-100745332D02*
X172734069Y-100696951D01*
X172734069Y-100696951D02*
X173556546Y-100696951D01*
X173556546Y-100358285D02*
X173556546Y-99777713D01*
X172540546Y-100067999D02*
X173556546Y-100067999D01*
X172540546Y-99439047D02*
X173556546Y-99439047D01*
X173556546Y-99439047D02*
X173556546Y-99051999D01*
X173556546Y-99051999D02*
X173508165Y-98955237D01*
X173508165Y-98955237D02*
X173459784Y-98906856D01*
X173459784Y-98906856D02*
X173363022Y-98858475D01*
X173363022Y-98858475D02*
X173217879Y-98858475D01*
X173217879Y-98858475D02*
X173121117Y-98906856D01*
X173121117Y-98906856D02*
X173072736Y-98955237D01*
X173072736Y-98955237D02*
X173024355Y-99051999D01*
X173024355Y-99051999D02*
X173024355Y-99439047D01*
X173556546Y-98423047D02*
X172734069Y-98423047D01*
X172734069Y-98423047D02*
X172637307Y-98374666D01*
X172637307Y-98374666D02*
X172588927Y-98326285D01*
X172588927Y-98326285D02*
X172540546Y-98229523D01*
X172540546Y-98229523D02*
X172540546Y-98035999D01*
X172540546Y-98035999D02*
X172588927Y-97939237D01*
X172588927Y-97939237D02*
X172637307Y-97890856D01*
X172637307Y-97890856D02*
X172734069Y-97842475D01*
X172734069Y-97842475D02*
X173556546Y-97842475D01*
X173556546Y-97503809D02*
X173556546Y-96923237D01*
X172540546Y-97213523D02*
X173556546Y-97213523D01*
D12*
X248261904Y-120202438D02*
X248357142Y-120154819D01*
X248357142Y-120154819D02*
X248499999Y-120154819D01*
X248499999Y-120154819D02*
X248642856Y-120202438D01*
X248642856Y-120202438D02*
X248738094Y-120297676D01*
X248738094Y-120297676D02*
X248785713Y-120392914D01*
X248785713Y-120392914D02*
X248833332Y-120583390D01*
X248833332Y-120583390D02*
X248833332Y-120726247D01*
X248833332Y-120726247D02*
X248785713Y-120916723D01*
X248785713Y-120916723D02*
X248738094Y-121011961D01*
X248738094Y-121011961D02*
X248642856Y-121107200D01*
X248642856Y-121107200D02*
X248499999Y-121154819D01*
X248499999Y-121154819D02*
X248404761Y-121154819D01*
X248404761Y-121154819D02*
X248261904Y-121107200D01*
X248261904Y-121107200D02*
X248214285Y-121059580D01*
X248214285Y-121059580D02*
X248214285Y-120726247D01*
X248214285Y-120726247D02*
X248404761Y-120726247D01*
X247785713Y-121154819D02*
X247785713Y-120154819D01*
X247785713Y-120154819D02*
X247214285Y-121154819D01*
X247214285Y-121154819D02*
X247214285Y-120154819D01*
X246738094Y-121154819D02*
X246738094Y-120154819D01*
X246738094Y-120154819D02*
X246499999Y-120154819D01*
X246499999Y-120154819D02*
X246357142Y-120202438D01*
X246357142Y-120202438D02*
X246261904Y-120297676D01*
X246261904Y-120297676D02*
X246214285Y-120392914D01*
X246214285Y-120392914D02*
X246166666Y-120583390D01*
X246166666Y-120583390D02*
X246166666Y-120726247D01*
X246166666Y-120726247D02*
X246214285Y-120916723D01*
X246214285Y-120916723D02*
X246261904Y-121011961D01*
X246261904Y-121011961D02*
X246357142Y-121107200D01*
X246357142Y-121107200D02*
X246499999Y-121154819D01*
X246499999Y-121154819D02*
X246738094Y-121154819D01*
D10*
X215721398Y-128832381D02*
X215660922Y-128711428D01*
X215660922Y-128711428D02*
X215660922Y-128530000D01*
X215660922Y-128530000D02*
X215721398Y-128348571D01*
X215721398Y-128348571D02*
X215842350Y-128227619D01*
X215842350Y-128227619D02*
X215963303Y-128167142D01*
X215963303Y-128167142D02*
X216205207Y-128106666D01*
X216205207Y-128106666D02*
X216386636Y-128106666D01*
X216386636Y-128106666D02*
X216628541Y-128167142D01*
X216628541Y-128167142D02*
X216749493Y-128227619D01*
X216749493Y-128227619D02*
X216870446Y-128348571D01*
X216870446Y-128348571D02*
X216930922Y-128530000D01*
X216930922Y-128530000D02*
X216930922Y-128650952D01*
X216930922Y-128650952D02*
X216870446Y-128832381D01*
X216870446Y-128832381D02*
X216809969Y-128892857D01*
X216809969Y-128892857D02*
X216386636Y-128892857D01*
X216386636Y-128892857D02*
X216386636Y-128650952D01*
X216930922Y-129437142D02*
X215660922Y-129437142D01*
X215660922Y-129437142D02*
X216930922Y-130162857D01*
X216930922Y-130162857D02*
X215660922Y-130162857D01*
X216930922Y-130767618D02*
X215660922Y-130767618D01*
X215660922Y-130767618D02*
X215660922Y-131069999D01*
X215660922Y-131069999D02*
X215721398Y-131251428D01*
X215721398Y-131251428D02*
X215842350Y-131372380D01*
X215842350Y-131372380D02*
X215963303Y-131432857D01*
X215963303Y-131432857D02*
X216205207Y-131493333D01*
X216205207Y-131493333D02*
X216386636Y-131493333D01*
X216386636Y-131493333D02*
X216628541Y-131432857D01*
X216628541Y-131432857D02*
X216749493Y-131372380D01*
X216749493Y-131372380D02*
X216870446Y-131251428D01*
X216870446Y-131251428D02*
X216930922Y-131069999D01*
X216930922Y-131069999D02*
X216930922Y-130767618D01*
D12*
X247966666Y-118459580D02*
X248014285Y-118507200D01*
X248014285Y-118507200D02*
X248157142Y-118554819D01*
X248157142Y-118554819D02*
X248252380Y-118554819D01*
X248252380Y-118554819D02*
X248395237Y-118507200D01*
X248395237Y-118507200D02*
X248490475Y-118411961D01*
X248490475Y-118411961D02*
X248538094Y-118316723D01*
X248538094Y-118316723D02*
X248585713Y-118126247D01*
X248585713Y-118126247D02*
X248585713Y-117983390D01*
X248585713Y-117983390D02*
X248538094Y-117792914D01*
X248538094Y-117792914D02*
X248490475Y-117697676D01*
X248490475Y-117697676D02*
X248395237Y-117602438D01*
X248395237Y-117602438D02*
X248252380Y-117554819D01*
X248252380Y-117554819D02*
X248157142Y-117554819D01*
X248157142Y-117554819D02*
X248014285Y-117602438D01*
X248014285Y-117602438D02*
X247966666Y-117650057D01*
X247585713Y-118507200D02*
X247442856Y-118554819D01*
X247442856Y-118554819D02*
X247204761Y-118554819D01*
X247204761Y-118554819D02*
X247109523Y-118507200D01*
X247109523Y-118507200D02*
X247061904Y-118459580D01*
X247061904Y-118459580D02*
X247014285Y-118364342D01*
X247014285Y-118364342D02*
X247014285Y-118269104D01*
X247014285Y-118269104D02*
X247061904Y-118173866D01*
X247061904Y-118173866D02*
X247109523Y-118126247D01*
X247109523Y-118126247D02*
X247204761Y-118078628D01*
X247204761Y-118078628D02*
X247395237Y-118031009D01*
X247395237Y-118031009D02*
X247490475Y-117983390D01*
X247490475Y-117983390D02*
X247538094Y-117935771D01*
X247538094Y-117935771D02*
X247585713Y-117840533D01*
X247585713Y-117840533D02*
X247585713Y-117745295D01*
X247585713Y-117745295D02*
X247538094Y-117650057D01*
X247538094Y-117650057D02*
X247490475Y-117602438D01*
X247490475Y-117602438D02*
X247395237Y-117554819D01*
X247395237Y-117554819D02*
X247157142Y-117554819D01*
X247157142Y-117554819D02*
X247014285Y-117602438D01*
X248671427Y-113554819D02*
X248671427Y-112554819D01*
X248671427Y-112554819D02*
X248338094Y-113269104D01*
X248338094Y-113269104D02*
X248004761Y-112554819D01*
X248004761Y-112554819D02*
X248004761Y-113554819D01*
X247528570Y-113554819D02*
X247528570Y-112554819D01*
X247099999Y-113507200D02*
X246957142Y-113554819D01*
X246957142Y-113554819D02*
X246719047Y-113554819D01*
X246719047Y-113554819D02*
X246623809Y-113507200D01*
X246623809Y-113507200D02*
X246576190Y-113459580D01*
X246576190Y-113459580D02*
X246528571Y-113364342D01*
X246528571Y-113364342D02*
X246528571Y-113269104D01*
X246528571Y-113269104D02*
X246576190Y-113173866D01*
X246576190Y-113173866D02*
X246623809Y-113126247D01*
X246623809Y-113126247D02*
X246719047Y-113078628D01*
X246719047Y-113078628D02*
X246909523Y-113031009D01*
X246909523Y-113031009D02*
X247004761Y-112983390D01*
X247004761Y-112983390D02*
X247052380Y-112935771D01*
X247052380Y-112935771D02*
X247099999Y-112840533D01*
X247099999Y-112840533D02*
X247099999Y-112745295D01*
X247099999Y-112745295D02*
X247052380Y-112650057D01*
X247052380Y-112650057D02*
X247004761Y-112602438D01*
X247004761Y-112602438D02*
X246909523Y-112554819D01*
X246909523Y-112554819D02*
X246671428Y-112554819D01*
X246671428Y-112554819D02*
X246528571Y-112602438D01*
X245909523Y-112554819D02*
X245719047Y-112554819D01*
X245719047Y-112554819D02*
X245623809Y-112602438D01*
X245623809Y-112602438D02*
X245528571Y-112697676D01*
X245528571Y-112697676D02*
X245480952Y-112888152D01*
X245480952Y-112888152D02*
X245480952Y-113221485D01*
X245480952Y-113221485D02*
X245528571Y-113411961D01*
X245528571Y-113411961D02*
X245623809Y-113507200D01*
X245623809Y-113507200D02*
X245719047Y-113554819D01*
X245719047Y-113554819D02*
X245909523Y-113554819D01*
X245909523Y-113554819D02*
X246004761Y-113507200D01*
X246004761Y-113507200D02*
X246099999Y-113411961D01*
X246099999Y-113411961D02*
X246147618Y-113221485D01*
X246147618Y-113221485D02*
X246147618Y-112888152D01*
X246147618Y-112888152D02*
X246099999Y-112697676D01*
X246099999Y-112697676D02*
X246004761Y-112602438D01*
X246004761Y-112602438D02*
X245909523Y-112554819D01*
D14*
X222413824Y-137307678D02*
X222413824Y-136596478D01*
X222109024Y-136664212D02*
X222075157Y-136630345D01*
X222075157Y-136630345D02*
X222007424Y-136596478D01*
X222007424Y-136596478D02*
X221838091Y-136596478D01*
X221838091Y-136596478D02*
X221770357Y-136630345D01*
X221770357Y-136630345D02*
X221736491Y-136664212D01*
X221736491Y-136664212D02*
X221702624Y-136731945D01*
X221702624Y-136731945D02*
X221702624Y-136799678D01*
X221702624Y-136799678D02*
X221736491Y-136901278D01*
X221736491Y-136901278D02*
X222142891Y-137307678D01*
X222142891Y-137307678D02*
X221702624Y-137307678D01*
X220991424Y-137239945D02*
X221025291Y-137273812D01*
X221025291Y-137273812D02*
X221126891Y-137307678D01*
X221126891Y-137307678D02*
X221194624Y-137307678D01*
X221194624Y-137307678D02*
X221296224Y-137273812D01*
X221296224Y-137273812D02*
X221363958Y-137206078D01*
X221363958Y-137206078D02*
X221397824Y-137138345D01*
X221397824Y-137138345D02*
X221431691Y-137002878D01*
X221431691Y-137002878D02*
X221431691Y-136901278D01*
X221431691Y-136901278D02*
X221397824Y-136765812D01*
X221397824Y-136765812D02*
X221363958Y-136698078D01*
X221363958Y-136698078D02*
X221296224Y-136630345D01*
X221296224Y-136630345D02*
X221194624Y-136596478D01*
X221194624Y-136596478D02*
X221126891Y-136596478D01*
X221126891Y-136596478D02*
X221025291Y-136630345D01*
X221025291Y-136630345D02*
X220991424Y-136664212D01*
X220855958Y-137375412D02*
X220314091Y-137375412D01*
X220144757Y-137307678D02*
X220144757Y-136596478D01*
X220144757Y-136596478D02*
X219873824Y-136596478D01*
X219873824Y-136596478D02*
X219806091Y-136630345D01*
X219806091Y-136630345D02*
X219772224Y-136664212D01*
X219772224Y-136664212D02*
X219738357Y-136731945D01*
X219738357Y-136731945D02*
X219738357Y-136833545D01*
X219738357Y-136833545D02*
X219772224Y-136901278D01*
X219772224Y-136901278D02*
X219806091Y-136935145D01*
X219806091Y-136935145D02*
X219873824Y-136969012D01*
X219873824Y-136969012D02*
X220144757Y-136969012D01*
X219433557Y-136596478D02*
X219433557Y-137172212D01*
X219433557Y-137172212D02*
X219399691Y-137239945D01*
X219399691Y-137239945D02*
X219365824Y-137273812D01*
X219365824Y-137273812D02*
X219298091Y-137307678D01*
X219298091Y-137307678D02*
X219162624Y-137307678D01*
X219162624Y-137307678D02*
X219094891Y-137273812D01*
X219094891Y-137273812D02*
X219061024Y-137239945D01*
X219061024Y-137239945D02*
X219027157Y-137172212D01*
X219027157Y-137172212D02*
X219027157Y-136596478D01*
X218349824Y-137307678D02*
X218688490Y-137307678D01*
X218688490Y-137307678D02*
X218688490Y-136596478D01*
X217774091Y-137307678D02*
X218112757Y-137307678D01*
X218112757Y-137307678D02*
X218112757Y-136596478D01*
X217537024Y-136596478D02*
X217537024Y-137172212D01*
X217537024Y-137172212D02*
X217503158Y-137239945D01*
X217503158Y-137239945D02*
X217469291Y-137273812D01*
X217469291Y-137273812D02*
X217401558Y-137307678D01*
X217401558Y-137307678D02*
X217266091Y-137307678D01*
X217266091Y-137307678D02*
X217198358Y-137273812D01*
X217198358Y-137273812D02*
X217164491Y-137239945D01*
X217164491Y-137239945D02*
X217130624Y-137172212D01*
X217130624Y-137172212D02*
X217130624Y-136596478D01*
X216791957Y-137307678D02*
X216791957Y-136596478D01*
X216791957Y-136596478D02*
X216521024Y-136596478D01*
X216521024Y-136596478D02*
X216453291Y-136630345D01*
X216453291Y-136630345D02*
X216419424Y-136664212D01*
X216419424Y-136664212D02*
X216385557Y-136731945D01*
X216385557Y-136731945D02*
X216385557Y-136833545D01*
X216385557Y-136833545D02*
X216419424Y-136901278D01*
X216419424Y-136901278D02*
X216453291Y-136935145D01*
X216453291Y-136935145D02*
X216521024Y-136969012D01*
X216521024Y-136969012D02*
X216791957Y-136969012D01*
D11*
X212019047Y-95306959D02*
X211595714Y-96576959D01*
X211595714Y-96576959D02*
X211172380Y-95306959D01*
X209116190Y-96576959D02*
X209841905Y-96576959D01*
X209479048Y-96576959D02*
X209479048Y-95306959D01*
X209479048Y-95306959D02*
X209600000Y-95488387D01*
X209600000Y-95488387D02*
X209720952Y-95609340D01*
X209720952Y-95609340D02*
X209841905Y-95669816D01*
X208571905Y-96456006D02*
X208511428Y-96516483D01*
X208511428Y-96516483D02*
X208571905Y-96576959D01*
X208571905Y-96576959D02*
X208632381Y-96516483D01*
X208632381Y-96516483D02*
X208571905Y-96456006D01*
X208571905Y-96456006D02*
X208571905Y-96576959D01*
X207725238Y-95306959D02*
X207604285Y-95306959D01*
X207604285Y-95306959D02*
X207483333Y-95367435D01*
X207483333Y-95367435D02*
X207422857Y-95427911D01*
X207422857Y-95427911D02*
X207362381Y-95548863D01*
X207362381Y-95548863D02*
X207301904Y-95790768D01*
X207301904Y-95790768D02*
X207301904Y-96093149D01*
X207301904Y-96093149D02*
X207362381Y-96335054D01*
X207362381Y-96335054D02*
X207422857Y-96456006D01*
X207422857Y-96456006D02*
X207483333Y-96516483D01*
X207483333Y-96516483D02*
X207604285Y-96576959D01*
X207604285Y-96576959D02*
X207725238Y-96576959D01*
X207725238Y-96576959D02*
X207846190Y-96516483D01*
X207846190Y-96516483D02*
X207906666Y-96456006D01*
X207906666Y-96456006D02*
X207967143Y-96335054D01*
X207967143Y-96335054D02*
X208027619Y-96093149D01*
X208027619Y-96093149D02*
X208027619Y-95790768D01*
X208027619Y-95790768D02*
X207967143Y-95548863D01*
X207967143Y-95548863D02*
X207906666Y-95427911D01*
X207906666Y-95427911D02*
X207846190Y-95367435D01*
X207846190Y-95367435D02*
X207725238Y-95306959D01*
X202946904Y-132276959D02*
X203370238Y-131672197D01*
X203672619Y-132276959D02*
X203672619Y-131006959D01*
X203672619Y-131006959D02*
X203188809Y-131006959D01*
X203188809Y-131006959D02*
X203067857Y-131067435D01*
X203067857Y-131067435D02*
X203007380Y-131127911D01*
X203007380Y-131127911D02*
X202946904Y-131248863D01*
X202946904Y-131248863D02*
X202946904Y-131430292D01*
X202946904Y-131430292D02*
X203007380Y-131551244D01*
X203007380Y-131551244D02*
X203067857Y-131611721D01*
X203067857Y-131611721D02*
X203188809Y-131672197D01*
X203188809Y-131672197D02*
X203672619Y-131672197D01*
X201918809Y-132216483D02*
X202039761Y-132276959D01*
X202039761Y-132276959D02*
X202281666Y-132276959D01*
X202281666Y-132276959D02*
X202402619Y-132216483D01*
X202402619Y-132216483D02*
X202463095Y-132095530D01*
X202463095Y-132095530D02*
X202463095Y-131611721D01*
X202463095Y-131611721D02*
X202402619Y-131490768D01*
X202402619Y-131490768D02*
X202281666Y-131430292D01*
X202281666Y-131430292D02*
X202039761Y-131430292D01*
X202039761Y-131430292D02*
X201918809Y-131490768D01*
X201918809Y-131490768D02*
X201858333Y-131611721D01*
X201858333Y-131611721D02*
X201858333Y-131732673D01*
X201858333Y-131732673D02*
X202463095Y-131853625D01*
X201132619Y-132276959D02*
X201253571Y-132216483D01*
X201253571Y-132216483D02*
X201314048Y-132095530D01*
X201314048Y-132095530D02*
X201314048Y-131006959D01*
X200104524Y-132276959D02*
X200104524Y-131611721D01*
X200104524Y-131611721D02*
X200165000Y-131490768D01*
X200165000Y-131490768D02*
X200285952Y-131430292D01*
X200285952Y-131430292D02*
X200527857Y-131430292D01*
X200527857Y-131430292D02*
X200648810Y-131490768D01*
X200104524Y-132216483D02*
X200225476Y-132276959D01*
X200225476Y-132276959D02*
X200527857Y-132276959D01*
X200527857Y-132276959D02*
X200648810Y-132216483D01*
X200648810Y-132216483D02*
X200709286Y-132095530D01*
X200709286Y-132095530D02*
X200709286Y-131974578D01*
X200709286Y-131974578D02*
X200648810Y-131853625D01*
X200648810Y-131853625D02*
X200527857Y-131793149D01*
X200527857Y-131793149D02*
X200225476Y-131793149D01*
X200225476Y-131793149D02*
X200104524Y-131732673D01*
X199620714Y-131430292D02*
X199318333Y-132276959D01*
X199015952Y-131430292D02*
X199318333Y-132276959D01*
X199318333Y-132276959D02*
X199439285Y-132579340D01*
X199439285Y-132579340D02*
X199499762Y-132639816D01*
X199499762Y-132639816D02*
X199620714Y-132700292D01*
X197866904Y-132276959D02*
X198592619Y-132276959D01*
X198229762Y-132276959D02*
X198229762Y-131006959D01*
X198229762Y-131006959D02*
X198350714Y-131188387D01*
X198350714Y-131188387D02*
X198471666Y-131309340D01*
X198471666Y-131309340D02*
X198592619Y-131369816D01*
X173556546Y-71954285D02*
X172734069Y-71954285D01*
X172734069Y-71954285D02*
X172637307Y-71905904D01*
X172637307Y-71905904D02*
X172588927Y-71857523D01*
X172588927Y-71857523D02*
X172540546Y-71760761D01*
X172540546Y-71760761D02*
X172540546Y-71567237D01*
X172540546Y-71567237D02*
X172588927Y-71470475D01*
X172588927Y-71470475D02*
X172637307Y-71422094D01*
X172637307Y-71422094D02*
X172734069Y-71373713D01*
X172734069Y-71373713D02*
X173556546Y-71373713D01*
X172588927Y-70938285D02*
X172540546Y-70793142D01*
X172540546Y-70793142D02*
X172540546Y-70551237D01*
X172540546Y-70551237D02*
X172588927Y-70454475D01*
X172588927Y-70454475D02*
X172637307Y-70406094D01*
X172637307Y-70406094D02*
X172734069Y-70357713D01*
X172734069Y-70357713D02*
X172830831Y-70357713D01*
X172830831Y-70357713D02*
X172927593Y-70406094D01*
X172927593Y-70406094D02*
X172975974Y-70454475D01*
X172975974Y-70454475D02*
X173024355Y-70551237D01*
X173024355Y-70551237D02*
X173072736Y-70744761D01*
X173072736Y-70744761D02*
X173121117Y-70841523D01*
X173121117Y-70841523D02*
X173169498Y-70889904D01*
X173169498Y-70889904D02*
X173266260Y-70938285D01*
X173266260Y-70938285D02*
X173363022Y-70938285D01*
X173363022Y-70938285D02*
X173459784Y-70889904D01*
X173459784Y-70889904D02*
X173508165Y-70841523D01*
X173508165Y-70841523D02*
X173556546Y-70744761D01*
X173556546Y-70744761D02*
X173556546Y-70502856D01*
X173556546Y-70502856D02*
X173508165Y-70357713D01*
X173072736Y-69583618D02*
X173024355Y-69438475D01*
X173024355Y-69438475D02*
X172975974Y-69390094D01*
X172975974Y-69390094D02*
X172879212Y-69341713D01*
X172879212Y-69341713D02*
X172734069Y-69341713D01*
X172734069Y-69341713D02*
X172637307Y-69390094D01*
X172637307Y-69390094D02*
X172588927Y-69438475D01*
X172588927Y-69438475D02*
X172540546Y-69535237D01*
X172540546Y-69535237D02*
X172540546Y-69922285D01*
X172540546Y-69922285D02*
X173556546Y-69922285D01*
X173556546Y-69922285D02*
X173556546Y-69583618D01*
X173556546Y-69583618D02*
X173508165Y-69486856D01*
X173508165Y-69486856D02*
X173459784Y-69438475D01*
X173459784Y-69438475D02*
X173363022Y-69390094D01*
X173363022Y-69390094D02*
X173266260Y-69390094D01*
X173266260Y-69390094D02*
X173169498Y-69438475D01*
X173169498Y-69438475D02*
X173121117Y-69486856D01*
X173121117Y-69486856D02*
X173072736Y-69583618D01*
X173072736Y-69583618D02*
X173072736Y-69922285D01*
X173459784Y-68954666D02*
X173508165Y-68906285D01*
X173508165Y-68906285D02*
X173556546Y-68809523D01*
X173556546Y-68809523D02*
X173556546Y-68567618D01*
X173556546Y-68567618D02*
X173508165Y-68470856D01*
X173508165Y-68470856D02*
X173459784Y-68422475D01*
X173459784Y-68422475D02*
X173363022Y-68374094D01*
X173363022Y-68374094D02*
X173266260Y-68374094D01*
X173266260Y-68374094D02*
X173121117Y-68422475D01*
X173121117Y-68422475D02*
X172540546Y-69003047D01*
X172540546Y-69003047D02*
X172540546Y-68374094D01*
X172540546Y-67164571D02*
X173556546Y-67164571D01*
X172540546Y-66680761D02*
X173556546Y-66680761D01*
X173556546Y-66680761D02*
X172540546Y-66100189D01*
X172540546Y-66100189D02*
X173556546Y-66100189D01*
X172540546Y-65616380D02*
X173556546Y-65616380D01*
X173556546Y-65616380D02*
X173556546Y-65229332D01*
X173556546Y-65229332D02*
X173508165Y-65132570D01*
X173508165Y-65132570D02*
X173459784Y-65084189D01*
X173459784Y-65084189D02*
X173363022Y-65035808D01*
X173363022Y-65035808D02*
X173217879Y-65035808D01*
X173217879Y-65035808D02*
X173121117Y-65084189D01*
X173121117Y-65084189D02*
X173072736Y-65132570D01*
X173072736Y-65132570D02*
X173024355Y-65229332D01*
X173024355Y-65229332D02*
X173024355Y-65616380D01*
X173556546Y-64600380D02*
X172734069Y-64600380D01*
X172734069Y-64600380D02*
X172637307Y-64551999D01*
X172637307Y-64551999D02*
X172588927Y-64503618D01*
X172588927Y-64503618D02*
X172540546Y-64406856D01*
X172540546Y-64406856D02*
X172540546Y-64213332D01*
X172540546Y-64213332D02*
X172588927Y-64116570D01*
X172588927Y-64116570D02*
X172637307Y-64068189D01*
X172637307Y-64068189D02*
X172734069Y-64019808D01*
X172734069Y-64019808D02*
X173556546Y-64019808D01*
X173556546Y-63681142D02*
X173556546Y-63100570D01*
X172540546Y-63390856D02*
X173556546Y-63390856D01*
D15*
X247809077Y-90385714D02*
X246909077Y-90385714D01*
X246909077Y-90385714D02*
X246909077Y-90728571D01*
X246909077Y-90728571D02*
X246951934Y-90814286D01*
X246951934Y-90814286D02*
X246994791Y-90857143D01*
X246994791Y-90857143D02*
X247080505Y-90900000D01*
X247080505Y-90900000D02*
X247209077Y-90900000D01*
X247209077Y-90900000D02*
X247294791Y-90857143D01*
X247294791Y-90857143D02*
X247337648Y-90814286D01*
X247337648Y-90814286D02*
X247380505Y-90728571D01*
X247380505Y-90728571D02*
X247380505Y-90385714D01*
X247337648Y-91585714D02*
X247380505Y-91714286D01*
X247380505Y-91714286D02*
X247423362Y-91757143D01*
X247423362Y-91757143D02*
X247509077Y-91800000D01*
X247509077Y-91800000D02*
X247637648Y-91800000D01*
X247637648Y-91800000D02*
X247723362Y-91757143D01*
X247723362Y-91757143D02*
X247766220Y-91714286D01*
X247766220Y-91714286D02*
X247809077Y-91628571D01*
X247809077Y-91628571D02*
X247809077Y-91285714D01*
X247809077Y-91285714D02*
X246909077Y-91285714D01*
X246909077Y-91285714D02*
X246909077Y-91585714D01*
X246909077Y-91585714D02*
X246951934Y-91671429D01*
X246951934Y-91671429D02*
X246994791Y-91714286D01*
X246994791Y-91714286D02*
X247080505Y-91757143D01*
X247080505Y-91757143D02*
X247166220Y-91757143D01*
X247166220Y-91757143D02*
X247251934Y-91714286D01*
X247251934Y-91714286D02*
X247294791Y-91671429D01*
X247294791Y-91671429D02*
X247337648Y-91585714D01*
X247337648Y-91585714D02*
X247337648Y-91285714D01*
X247209077Y-92571429D02*
X247809077Y-92571429D01*
X246866220Y-92357143D02*
X247509077Y-92142857D01*
X247509077Y-92142857D02*
X247509077Y-92700000D01*
D10*
X229471398Y-56532381D02*
X229410922Y-56411428D01*
X229410922Y-56411428D02*
X229410922Y-56230000D01*
X229410922Y-56230000D02*
X229471398Y-56048571D01*
X229471398Y-56048571D02*
X229592350Y-55927619D01*
X229592350Y-55927619D02*
X229713303Y-55867142D01*
X229713303Y-55867142D02*
X229955207Y-55806666D01*
X229955207Y-55806666D02*
X230136636Y-55806666D01*
X230136636Y-55806666D02*
X230378541Y-55867142D01*
X230378541Y-55867142D02*
X230499493Y-55927619D01*
X230499493Y-55927619D02*
X230620446Y-56048571D01*
X230620446Y-56048571D02*
X230680922Y-56230000D01*
X230680922Y-56230000D02*
X230680922Y-56350952D01*
X230680922Y-56350952D02*
X230620446Y-56532381D01*
X230620446Y-56532381D02*
X230559969Y-56592857D01*
X230559969Y-56592857D02*
X230136636Y-56592857D01*
X230136636Y-56592857D02*
X230136636Y-56350952D01*
X230680922Y-57137142D02*
X229410922Y-57137142D01*
X229410922Y-57137142D02*
X230680922Y-57862857D01*
X230680922Y-57862857D02*
X229410922Y-57862857D01*
X230680922Y-58467618D02*
X229410922Y-58467618D01*
X229410922Y-58467618D02*
X229410922Y-58769999D01*
X229410922Y-58769999D02*
X229471398Y-58951428D01*
X229471398Y-58951428D02*
X229592350Y-59072380D01*
X229592350Y-59072380D02*
X229713303Y-59132857D01*
X229713303Y-59132857D02*
X229955207Y-59193333D01*
X229955207Y-59193333D02*
X230136636Y-59193333D01*
X230136636Y-59193333D02*
X230378541Y-59132857D01*
X230378541Y-59132857D02*
X230499493Y-59072380D01*
X230499493Y-59072380D02*
X230620446Y-58951428D01*
X230620446Y-58951428D02*
X230680922Y-58769999D01*
X230680922Y-58769999D02*
X230680922Y-58467618D01*
D12*
X173261904Y-131102438D02*
X173357142Y-131054819D01*
X173357142Y-131054819D02*
X173499999Y-131054819D01*
X173499999Y-131054819D02*
X173642856Y-131102438D01*
X173642856Y-131102438D02*
X173738094Y-131197676D01*
X173738094Y-131197676D02*
X173785713Y-131292914D01*
X173785713Y-131292914D02*
X173833332Y-131483390D01*
X173833332Y-131483390D02*
X173833332Y-131626247D01*
X173833332Y-131626247D02*
X173785713Y-131816723D01*
X173785713Y-131816723D02*
X173738094Y-131911961D01*
X173738094Y-131911961D02*
X173642856Y-132007200D01*
X173642856Y-132007200D02*
X173499999Y-132054819D01*
X173499999Y-132054819D02*
X173404761Y-132054819D01*
X173404761Y-132054819D02*
X173261904Y-132007200D01*
X173261904Y-132007200D02*
X173214285Y-131959580D01*
X173214285Y-131959580D02*
X173214285Y-131626247D01*
X173214285Y-131626247D02*
X173404761Y-131626247D01*
X172785713Y-132054819D02*
X172785713Y-131054819D01*
X172785713Y-131054819D02*
X172214285Y-132054819D01*
X172214285Y-132054819D02*
X172214285Y-131054819D01*
X171738094Y-132054819D02*
X171738094Y-131054819D01*
X171738094Y-131054819D02*
X171499999Y-131054819D01*
X171499999Y-131054819D02*
X171357142Y-131102438D01*
X171357142Y-131102438D02*
X171261904Y-131197676D01*
X171261904Y-131197676D02*
X171214285Y-131292914D01*
X171214285Y-131292914D02*
X171166666Y-131483390D01*
X171166666Y-131483390D02*
X171166666Y-131626247D01*
X171166666Y-131626247D02*
X171214285Y-131816723D01*
X171214285Y-131816723D02*
X171261904Y-131911961D01*
X171261904Y-131911961D02*
X171357142Y-132007200D01*
X171357142Y-132007200D02*
X171499999Y-132054819D01*
X171499999Y-132054819D02*
X171738094Y-132054819D01*
X248471427Y-110854819D02*
X248471427Y-109854819D01*
X248471427Y-109854819D02*
X248138094Y-110569104D01*
X248138094Y-110569104D02*
X247804761Y-109854819D01*
X247804761Y-109854819D02*
X247804761Y-110854819D01*
X247138094Y-109854819D02*
X246947618Y-109854819D01*
X246947618Y-109854819D02*
X246852380Y-109902438D01*
X246852380Y-109902438D02*
X246757142Y-109997676D01*
X246757142Y-109997676D02*
X246709523Y-110188152D01*
X246709523Y-110188152D02*
X246709523Y-110521485D01*
X246709523Y-110521485D02*
X246757142Y-110711961D01*
X246757142Y-110711961D02*
X246852380Y-110807200D01*
X246852380Y-110807200D02*
X246947618Y-110854819D01*
X246947618Y-110854819D02*
X247138094Y-110854819D01*
X247138094Y-110854819D02*
X247233332Y-110807200D01*
X247233332Y-110807200D02*
X247328570Y-110711961D01*
X247328570Y-110711961D02*
X247376189Y-110521485D01*
X247376189Y-110521485D02*
X247376189Y-110188152D01*
X247376189Y-110188152D02*
X247328570Y-109997676D01*
X247328570Y-109997676D02*
X247233332Y-109902438D01*
X247233332Y-109902438D02*
X247138094Y-109854819D01*
X246328570Y-110807200D02*
X246185713Y-110854819D01*
X246185713Y-110854819D02*
X245947618Y-110854819D01*
X245947618Y-110854819D02*
X245852380Y-110807200D01*
X245852380Y-110807200D02*
X245804761Y-110759580D01*
X245804761Y-110759580D02*
X245757142Y-110664342D01*
X245757142Y-110664342D02*
X245757142Y-110569104D01*
X245757142Y-110569104D02*
X245804761Y-110473866D01*
X245804761Y-110473866D02*
X245852380Y-110426247D01*
X245852380Y-110426247D02*
X245947618Y-110378628D01*
X245947618Y-110378628D02*
X246138094Y-110331009D01*
X246138094Y-110331009D02*
X246233332Y-110283390D01*
X246233332Y-110283390D02*
X246280951Y-110235771D01*
X246280951Y-110235771D02*
X246328570Y-110140533D01*
X246328570Y-110140533D02*
X246328570Y-110045295D01*
X246328570Y-110045295D02*
X246280951Y-109950057D01*
X246280951Y-109950057D02*
X246233332Y-109902438D01*
X246233332Y-109902438D02*
X246138094Y-109854819D01*
X246138094Y-109854819D02*
X245899999Y-109854819D01*
X245899999Y-109854819D02*
X245757142Y-109902438D01*
X245328570Y-110854819D02*
X245328570Y-109854819D01*
X249355363Y-100203152D02*
X248871554Y-100203152D01*
X249173935Y-99869819D02*
X249173935Y-100726961D01*
X249173935Y-100726961D02*
X249113458Y-100822200D01*
X249113458Y-100822200D02*
X248992506Y-100869819D01*
X248992506Y-100869819D02*
X248871554Y-100869819D01*
X248448221Y-100869819D02*
X248448221Y-99869819D01*
X247903935Y-100869819D02*
X247903935Y-100346009D01*
X247903935Y-100346009D02*
X247964411Y-100250771D01*
X247964411Y-100250771D02*
X248085363Y-100203152D01*
X248085363Y-100203152D02*
X248266792Y-100203152D01*
X248266792Y-100203152D02*
X248387744Y-100250771D01*
X248387744Y-100250771D02*
X248448221Y-100298390D01*
X247299173Y-100869819D02*
X247299173Y-100203152D01*
X247299173Y-100393628D02*
X247238696Y-100298390D01*
X247238696Y-100298390D02*
X247178220Y-100250771D01*
X247178220Y-100250771D02*
X247057268Y-100203152D01*
X247057268Y-100203152D02*
X246936315Y-100203152D01*
X246512983Y-100869819D02*
X246512983Y-100203152D01*
X246512983Y-100298390D02*
X246452506Y-100250771D01*
X246452506Y-100250771D02*
X246331554Y-100203152D01*
X246331554Y-100203152D02*
X246150125Y-100203152D01*
X246150125Y-100203152D02*
X246029173Y-100250771D01*
X246029173Y-100250771D02*
X245968697Y-100346009D01*
X245968697Y-100346009D02*
X245968697Y-100869819D01*
X245968697Y-100346009D02*
X245908221Y-100250771D01*
X245908221Y-100250771D02*
X245787268Y-100203152D01*
X245787268Y-100203152D02*
X245605840Y-100203152D01*
X245605840Y-100203152D02*
X245484887Y-100250771D01*
X245484887Y-100250771D02*
X245424411Y-100346009D01*
X245424411Y-100346009D02*
X245424411Y-100869819D01*
D10*
X225380922Y-57288333D02*
X224776160Y-56864999D01*
X225380922Y-56562618D02*
X224110922Y-56562618D01*
X224110922Y-56562618D02*
X224110922Y-57046428D01*
X224110922Y-57046428D02*
X224171398Y-57167380D01*
X224171398Y-57167380D02*
X224231874Y-57227857D01*
X224231874Y-57227857D02*
X224352826Y-57288333D01*
X224352826Y-57288333D02*
X224534255Y-57288333D01*
X224534255Y-57288333D02*
X224655207Y-57227857D01*
X224655207Y-57227857D02*
X224715684Y-57167380D01*
X224715684Y-57167380D02*
X224776160Y-57046428D01*
X224776160Y-57046428D02*
X224776160Y-56562618D01*
X224110922Y-57711666D02*
X225380922Y-58558333D01*
X224110922Y-58558333D02*
X225380922Y-57711666D01*
D11*
X238146904Y-132376959D02*
X238570238Y-131772197D01*
X238872619Y-132376959D02*
X238872619Y-131106959D01*
X238872619Y-131106959D02*
X238388809Y-131106959D01*
X238388809Y-131106959D02*
X238267857Y-131167435D01*
X238267857Y-131167435D02*
X238207380Y-131227911D01*
X238207380Y-131227911D02*
X238146904Y-131348863D01*
X238146904Y-131348863D02*
X238146904Y-131530292D01*
X238146904Y-131530292D02*
X238207380Y-131651244D01*
X238207380Y-131651244D02*
X238267857Y-131711721D01*
X238267857Y-131711721D02*
X238388809Y-131772197D01*
X238388809Y-131772197D02*
X238872619Y-131772197D01*
X237118809Y-132316483D02*
X237239761Y-132376959D01*
X237239761Y-132376959D02*
X237481666Y-132376959D01*
X237481666Y-132376959D02*
X237602619Y-132316483D01*
X237602619Y-132316483D02*
X237663095Y-132195530D01*
X237663095Y-132195530D02*
X237663095Y-131711721D01*
X237663095Y-131711721D02*
X237602619Y-131590768D01*
X237602619Y-131590768D02*
X237481666Y-131530292D01*
X237481666Y-131530292D02*
X237239761Y-131530292D01*
X237239761Y-131530292D02*
X237118809Y-131590768D01*
X237118809Y-131590768D02*
X237058333Y-131711721D01*
X237058333Y-131711721D02*
X237058333Y-131832673D01*
X237058333Y-131832673D02*
X237663095Y-131953625D01*
X236332619Y-132376959D02*
X236453571Y-132316483D01*
X236453571Y-132316483D02*
X236514048Y-132195530D01*
X236514048Y-132195530D02*
X236514048Y-131106959D01*
X235304524Y-132376959D02*
X235304524Y-131711721D01*
X235304524Y-131711721D02*
X235365000Y-131590768D01*
X235365000Y-131590768D02*
X235485952Y-131530292D01*
X235485952Y-131530292D02*
X235727857Y-131530292D01*
X235727857Y-131530292D02*
X235848810Y-131590768D01*
X235304524Y-132316483D02*
X235425476Y-132376959D01*
X235425476Y-132376959D02*
X235727857Y-132376959D01*
X235727857Y-132376959D02*
X235848810Y-132316483D01*
X235848810Y-132316483D02*
X235909286Y-132195530D01*
X235909286Y-132195530D02*
X235909286Y-132074578D01*
X235909286Y-132074578D02*
X235848810Y-131953625D01*
X235848810Y-131953625D02*
X235727857Y-131893149D01*
X235727857Y-131893149D02*
X235425476Y-131893149D01*
X235425476Y-131893149D02*
X235304524Y-131832673D01*
X234820714Y-131530292D02*
X234518333Y-132376959D01*
X234215952Y-131530292D02*
X234518333Y-132376959D01*
X234518333Y-132376959D02*
X234639285Y-132679340D01*
X234639285Y-132679340D02*
X234699762Y-132739816D01*
X234699762Y-132739816D02*
X234820714Y-132800292D01*
X233792619Y-131227911D02*
X233732143Y-131167435D01*
X233732143Y-131167435D02*
X233611190Y-131106959D01*
X233611190Y-131106959D02*
X233308809Y-131106959D01*
X233308809Y-131106959D02*
X233187857Y-131167435D01*
X233187857Y-131167435D02*
X233127381Y-131227911D01*
X233127381Y-131227911D02*
X233066904Y-131348863D01*
X233066904Y-131348863D02*
X233066904Y-131469816D01*
X233066904Y-131469816D02*
X233127381Y-131651244D01*
X233127381Y-131651244D02*
X233853095Y-132376959D01*
X233853095Y-132376959D02*
X233066904Y-132376959D01*
D12*
X249305363Y-106553152D02*
X248821554Y-106553152D01*
X249123935Y-106219819D02*
X249123935Y-107076961D01*
X249123935Y-107076961D02*
X249063458Y-107172200D01*
X249063458Y-107172200D02*
X248942506Y-107219819D01*
X248942506Y-107219819D02*
X248821554Y-107219819D01*
X248398221Y-107219819D02*
X248398221Y-106219819D01*
X247853935Y-107219819D02*
X247853935Y-106696009D01*
X247853935Y-106696009D02*
X247914411Y-106600771D01*
X247914411Y-106600771D02*
X248035363Y-106553152D01*
X248035363Y-106553152D02*
X248216792Y-106553152D01*
X248216792Y-106553152D02*
X248337744Y-106600771D01*
X248337744Y-106600771D02*
X248398221Y-106648390D01*
X247249173Y-107219819D02*
X247249173Y-106553152D01*
X247249173Y-106743628D02*
X247188696Y-106648390D01*
X247188696Y-106648390D02*
X247128220Y-106600771D01*
X247128220Y-106600771D02*
X247007268Y-106553152D01*
X247007268Y-106553152D02*
X246886315Y-106553152D01*
X246462983Y-107219819D02*
X246462983Y-106553152D01*
X246462983Y-106648390D02*
X246402506Y-106600771D01*
X246402506Y-106600771D02*
X246281554Y-106553152D01*
X246281554Y-106553152D02*
X246100125Y-106553152D01*
X246100125Y-106553152D02*
X245979173Y-106600771D01*
X245979173Y-106600771D02*
X245918697Y-106696009D01*
X245918697Y-106696009D02*
X245918697Y-107219819D01*
X245918697Y-106696009D02*
X245858221Y-106600771D01*
X245858221Y-106600771D02*
X245737268Y-106553152D01*
X245737268Y-106553152D02*
X245555840Y-106553152D01*
X245555840Y-106553152D02*
X245434887Y-106600771D01*
X245434887Y-106600771D02*
X245374411Y-106696009D01*
X245374411Y-106696009D02*
X245374411Y-107219819D01*
X248485713Y-116107200D02*
X248342856Y-116154819D01*
X248342856Y-116154819D02*
X248104761Y-116154819D01*
X248104761Y-116154819D02*
X248009523Y-116107200D01*
X248009523Y-116107200D02*
X247961904Y-116059580D01*
X247961904Y-116059580D02*
X247914285Y-115964342D01*
X247914285Y-115964342D02*
X247914285Y-115869104D01*
X247914285Y-115869104D02*
X247961904Y-115773866D01*
X247961904Y-115773866D02*
X248009523Y-115726247D01*
X248009523Y-115726247D02*
X248104761Y-115678628D01*
X248104761Y-115678628D02*
X248295237Y-115631009D01*
X248295237Y-115631009D02*
X248390475Y-115583390D01*
X248390475Y-115583390D02*
X248438094Y-115535771D01*
X248438094Y-115535771D02*
X248485713Y-115440533D01*
X248485713Y-115440533D02*
X248485713Y-115345295D01*
X248485713Y-115345295D02*
X248438094Y-115250057D01*
X248438094Y-115250057D02*
X248390475Y-115202438D01*
X248390475Y-115202438D02*
X248295237Y-115154819D01*
X248295237Y-115154819D02*
X248057142Y-115154819D01*
X248057142Y-115154819D02*
X247914285Y-115202438D01*
X246914285Y-116059580D02*
X246961904Y-116107200D01*
X246961904Y-116107200D02*
X247104761Y-116154819D01*
X247104761Y-116154819D02*
X247199999Y-116154819D01*
X247199999Y-116154819D02*
X247342856Y-116107200D01*
X247342856Y-116107200D02*
X247438094Y-116011961D01*
X247438094Y-116011961D02*
X247485713Y-115916723D01*
X247485713Y-115916723D02*
X247533332Y-115726247D01*
X247533332Y-115726247D02*
X247533332Y-115583390D01*
X247533332Y-115583390D02*
X247485713Y-115392914D01*
X247485713Y-115392914D02*
X247438094Y-115297676D01*
X247438094Y-115297676D02*
X247342856Y-115202438D01*
X247342856Y-115202438D02*
X247199999Y-115154819D01*
X247199999Y-115154819D02*
X247104761Y-115154819D01*
X247104761Y-115154819D02*
X246961904Y-115202438D01*
X246961904Y-115202438D02*
X246914285Y-115250057D01*
X246485713Y-116154819D02*
X246485713Y-115154819D01*
X245914285Y-116154819D02*
X246342856Y-115583390D01*
X245914285Y-115154819D02*
X246485713Y-115726247D01*
D11*
X217044761Y-55143453D02*
X216706094Y-56159453D01*
X216706094Y-56159453D02*
X216367427Y-55143453D01*
X216028761Y-56159453D02*
X216028761Y-55143453D01*
X216028761Y-55143453D02*
X215786856Y-55143453D01*
X215786856Y-55143453D02*
X215641713Y-55191834D01*
X215641713Y-55191834D02*
X215544951Y-55288596D01*
X215544951Y-55288596D02*
X215496570Y-55385358D01*
X215496570Y-55385358D02*
X215448189Y-55578882D01*
X215448189Y-55578882D02*
X215448189Y-55724025D01*
X215448189Y-55724025D02*
X215496570Y-55917549D01*
X215496570Y-55917549D02*
X215544951Y-56014311D01*
X215544951Y-56014311D02*
X215641713Y-56111073D01*
X215641713Y-56111073D02*
X215786856Y-56159453D01*
X215786856Y-56159453D02*
X216028761Y-56159453D01*
X215012761Y-56159453D02*
X215012761Y-55143453D01*
X215012761Y-55143453D02*
X214770856Y-55143453D01*
X214770856Y-55143453D02*
X214625713Y-55191834D01*
X214625713Y-55191834D02*
X214528951Y-55288596D01*
X214528951Y-55288596D02*
X214480570Y-55385358D01*
X214480570Y-55385358D02*
X214432189Y-55578882D01*
X214432189Y-55578882D02*
X214432189Y-55724025D01*
X214432189Y-55724025D02*
X214480570Y-55917549D01*
X214480570Y-55917549D02*
X214528951Y-56014311D01*
X214528951Y-56014311D02*
X214625713Y-56111073D01*
X214625713Y-56111073D02*
X214770856Y-56159453D01*
X214770856Y-56159453D02*
X215012761Y-56159453D01*
X214238666Y-56256215D02*
X213464570Y-56256215D01*
X213319428Y-55143453D02*
X212690475Y-55143453D01*
X212690475Y-55143453D02*
X213029142Y-55530501D01*
X213029142Y-55530501D02*
X212883999Y-55530501D01*
X212883999Y-55530501D02*
X212787237Y-55578882D01*
X212787237Y-55578882D02*
X212738856Y-55627263D01*
X212738856Y-55627263D02*
X212690475Y-55724025D01*
X212690475Y-55724025D02*
X212690475Y-55965930D01*
X212690475Y-55965930D02*
X212738856Y-56062692D01*
X212738856Y-56062692D02*
X212787237Y-56111073D01*
X212787237Y-56111073D02*
X212883999Y-56159453D01*
X212883999Y-56159453D02*
X213174285Y-56159453D01*
X213174285Y-56159453D02*
X213271047Y-56111073D01*
X213271047Y-56111073D02*
X213319428Y-56062692D01*
X212400190Y-55143453D02*
X212061523Y-56159453D01*
X212061523Y-56159453D02*
X211722856Y-55143453D01*
X211480952Y-55143453D02*
X210851999Y-55143453D01*
X210851999Y-55143453D02*
X211190666Y-55530501D01*
X211190666Y-55530501D02*
X211045523Y-55530501D01*
X211045523Y-55530501D02*
X210948761Y-55578882D01*
X210948761Y-55578882D02*
X210900380Y-55627263D01*
X210900380Y-55627263D02*
X210851999Y-55724025D01*
X210851999Y-55724025D02*
X210851999Y-55965930D01*
X210851999Y-55965930D02*
X210900380Y-56062692D01*
X210900380Y-56062692D02*
X210948761Y-56111073D01*
X210948761Y-56111073D02*
X211045523Y-56159453D01*
X211045523Y-56159453D02*
X211335809Y-56159453D01*
X211335809Y-56159453D02*
X211432571Y-56111073D01*
X211432571Y-56111073D02*
X211480952Y-56062692D01*
D15*
X247809077Y-93221428D02*
X246909077Y-93221428D01*
X246909077Y-93221428D02*
X246909077Y-93564285D01*
X246909077Y-93564285D02*
X246951934Y-93650000D01*
X246951934Y-93650000D02*
X246994791Y-93692857D01*
X246994791Y-93692857D02*
X247080505Y-93735714D01*
X247080505Y-93735714D02*
X247209077Y-93735714D01*
X247209077Y-93735714D02*
X247294791Y-93692857D01*
X247294791Y-93692857D02*
X247337648Y-93650000D01*
X247337648Y-93650000D02*
X247380505Y-93564285D01*
X247380505Y-93564285D02*
X247380505Y-93221428D01*
X247551934Y-94078571D02*
X247551934Y-94507143D01*
X247809077Y-93992857D02*
X246909077Y-94292857D01*
X246909077Y-94292857D02*
X247809077Y-94592857D01*
X247809077Y-95364286D02*
X247809077Y-94850000D01*
X247809077Y-95107143D02*
X246909077Y-95107143D01*
X246909077Y-95107143D02*
X247037648Y-95021429D01*
X247037648Y-95021429D02*
X247123362Y-94935714D01*
X247123362Y-94935714D02*
X247166220Y-94850000D01*
X246909077Y-95921429D02*
X246909077Y-96007143D01*
X246909077Y-96007143D02*
X246951934Y-96092857D01*
X246951934Y-96092857D02*
X246994791Y-96135715D01*
X246994791Y-96135715D02*
X247080505Y-96178572D01*
X247080505Y-96178572D02*
X247251934Y-96221429D01*
X247251934Y-96221429D02*
X247466220Y-96221429D01*
X247466220Y-96221429D02*
X247637648Y-96178572D01*
X247637648Y-96178572D02*
X247723362Y-96135715D01*
X247723362Y-96135715D02*
X247766220Y-96092857D01*
X247766220Y-96092857D02*
X247809077Y-96007143D01*
X247809077Y-96007143D02*
X247809077Y-95921429D01*
X247809077Y-95921429D02*
X247766220Y-95835715D01*
X247766220Y-95835715D02*
X247723362Y-95792857D01*
X247723362Y-95792857D02*
X247637648Y-95750000D01*
X247637648Y-95750000D02*
X247466220Y-95707143D01*
X247466220Y-95707143D02*
X247251934Y-95707143D01*
X247251934Y-95707143D02*
X247080505Y-95750000D01*
X247080505Y-95750000D02*
X246994791Y-95792857D01*
X246994791Y-95792857D02*
X246951934Y-95835715D01*
X246951934Y-95835715D02*
X246909077Y-95921429D01*
D12*
X249231077Y-97619819D02*
X248897744Y-98619819D01*
X248897744Y-98619819D02*
X248564411Y-97619819D01*
X248231077Y-98619819D02*
X248231077Y-97619819D01*
X248231077Y-97619819D02*
X247992982Y-97619819D01*
X247992982Y-97619819D02*
X247850125Y-97667438D01*
X247850125Y-97667438D02*
X247754887Y-97762676D01*
X247754887Y-97762676D02*
X247707268Y-97857914D01*
X247707268Y-97857914D02*
X247659649Y-98048390D01*
X247659649Y-98048390D02*
X247659649Y-98191247D01*
X247659649Y-98191247D02*
X247707268Y-98381723D01*
X247707268Y-98381723D02*
X247754887Y-98476961D01*
X247754887Y-98476961D02*
X247850125Y-98572200D01*
X247850125Y-98572200D02*
X247992982Y-98619819D01*
X247992982Y-98619819D02*
X248231077Y-98619819D01*
X247231077Y-98619819D02*
X247231077Y-97619819D01*
X247231077Y-97619819D02*
X246992982Y-97619819D01*
X246992982Y-97619819D02*
X246850125Y-97667438D01*
X246850125Y-97667438D02*
X246754887Y-97762676D01*
X246754887Y-97762676D02*
X246707268Y-97857914D01*
X246707268Y-97857914D02*
X246659649Y-98048390D01*
X246659649Y-98048390D02*
X246659649Y-98191247D01*
X246659649Y-98191247D02*
X246707268Y-98381723D01*
X246707268Y-98381723D02*
X246754887Y-98476961D01*
X246754887Y-98476961D02*
X246850125Y-98572200D01*
X246850125Y-98572200D02*
X246992982Y-98619819D01*
X246992982Y-98619819D02*
X247231077Y-98619819D01*
D10*
X222070446Y-128167142D02*
X222130922Y-128348571D01*
X222130922Y-128348571D02*
X222130922Y-128650952D01*
X222130922Y-128650952D02*
X222070446Y-128771904D01*
X222070446Y-128771904D02*
X222009969Y-128832380D01*
X222009969Y-128832380D02*
X221889017Y-128892857D01*
X221889017Y-128892857D02*
X221768065Y-128892857D01*
X221768065Y-128892857D02*
X221647112Y-128832380D01*
X221647112Y-128832380D02*
X221586636Y-128771904D01*
X221586636Y-128771904D02*
X221526160Y-128650952D01*
X221526160Y-128650952D02*
X221465684Y-128409047D01*
X221465684Y-128409047D02*
X221405207Y-128288095D01*
X221405207Y-128288095D02*
X221344731Y-128227618D01*
X221344731Y-128227618D02*
X221223779Y-128167142D01*
X221223779Y-128167142D02*
X221102826Y-128167142D01*
X221102826Y-128167142D02*
X220981874Y-128227618D01*
X220981874Y-128227618D02*
X220921398Y-128288095D01*
X220921398Y-128288095D02*
X220860922Y-128409047D01*
X220860922Y-128409047D02*
X220860922Y-128711428D01*
X220860922Y-128711428D02*
X220921398Y-128892857D01*
X222009969Y-130162857D02*
X222070446Y-130102381D01*
X222070446Y-130102381D02*
X222130922Y-129920952D01*
X222130922Y-129920952D02*
X222130922Y-129800000D01*
X222130922Y-129800000D02*
X222070446Y-129618571D01*
X222070446Y-129618571D02*
X221949493Y-129497619D01*
X221949493Y-129497619D02*
X221828541Y-129437142D01*
X221828541Y-129437142D02*
X221586636Y-129376666D01*
X221586636Y-129376666D02*
X221405207Y-129376666D01*
X221405207Y-129376666D02*
X221163303Y-129437142D01*
X221163303Y-129437142D02*
X221042350Y-129497619D01*
X221042350Y-129497619D02*
X220921398Y-129618571D01*
X220921398Y-129618571D02*
X220860922Y-129800000D01*
X220860922Y-129800000D02*
X220860922Y-129920952D01*
X220860922Y-129920952D02*
X220921398Y-130102381D01*
X220921398Y-130102381D02*
X220981874Y-130162857D01*
X222130922Y-130707142D02*
X220860922Y-130707142D01*
X222130922Y-131432857D02*
X221405207Y-130888571D01*
X220860922Y-131432857D02*
X221586636Y-130707142D01*
X188319999Y-139268065D02*
X187715237Y-139268065D01*
X188440951Y-139630922D02*
X188017618Y-138360922D01*
X188017618Y-138360922D02*
X187594284Y-139630922D01*
X187170952Y-139630922D02*
X187170952Y-138360922D01*
X186566190Y-139630922D02*
X186566190Y-138360922D01*
X186566190Y-138360922D02*
X185840475Y-139630922D01*
X185840475Y-139630922D02*
X185840475Y-138360922D01*
D11*
X224709453Y-132508190D02*
X223693453Y-132508190D01*
X223790215Y-132943619D02*
X223741834Y-132992000D01*
X223741834Y-132992000D02*
X223693453Y-133088762D01*
X223693453Y-133088762D02*
X223693453Y-133330667D01*
X223693453Y-133330667D02*
X223741834Y-133427429D01*
X223741834Y-133427429D02*
X223790215Y-133475810D01*
X223790215Y-133475810D02*
X223886977Y-133524191D01*
X223886977Y-133524191D02*
X223983739Y-133524191D01*
X223983739Y-133524191D02*
X224128882Y-133475810D01*
X224128882Y-133475810D02*
X224709453Y-132895238D01*
X224709453Y-132895238D02*
X224709453Y-133524191D01*
X224612692Y-134540191D02*
X224661073Y-134491810D01*
X224661073Y-134491810D02*
X224709453Y-134346667D01*
X224709453Y-134346667D02*
X224709453Y-134249905D01*
X224709453Y-134249905D02*
X224661073Y-134104762D01*
X224661073Y-134104762D02*
X224564311Y-134008000D01*
X224564311Y-134008000D02*
X224467549Y-133959619D01*
X224467549Y-133959619D02*
X224274025Y-133911238D01*
X224274025Y-133911238D02*
X224128882Y-133911238D01*
X224128882Y-133911238D02*
X223935358Y-133959619D01*
X223935358Y-133959619D02*
X223838596Y-134008000D01*
X223838596Y-134008000D02*
X223741834Y-134104762D01*
X223741834Y-134104762D02*
X223693453Y-134249905D01*
X223693453Y-134249905D02*
X223693453Y-134346667D01*
X223693453Y-134346667D02*
X223741834Y-134491810D01*
X223741834Y-134491810D02*
X223790215Y-134540191D01*
D10*
X180017618Y-138271398D02*
X180138571Y-138210922D01*
X180138571Y-138210922D02*
X180319999Y-138210922D01*
X180319999Y-138210922D02*
X180501428Y-138271398D01*
X180501428Y-138271398D02*
X180622380Y-138392350D01*
X180622380Y-138392350D02*
X180682857Y-138513303D01*
X180682857Y-138513303D02*
X180743333Y-138755207D01*
X180743333Y-138755207D02*
X180743333Y-138936636D01*
X180743333Y-138936636D02*
X180682857Y-139178541D01*
X180682857Y-139178541D02*
X180622380Y-139299493D01*
X180622380Y-139299493D02*
X180501428Y-139420446D01*
X180501428Y-139420446D02*
X180319999Y-139480922D01*
X180319999Y-139480922D02*
X180199047Y-139480922D01*
X180199047Y-139480922D02*
X180017618Y-139420446D01*
X180017618Y-139420446D02*
X179957142Y-139359969D01*
X179957142Y-139359969D02*
X179957142Y-138936636D01*
X179957142Y-138936636D02*
X180199047Y-138936636D01*
X179412857Y-139480922D02*
X179412857Y-138210922D01*
X179412857Y-138210922D02*
X178687142Y-139480922D01*
X178687142Y-139480922D02*
X178687142Y-138210922D01*
X178082381Y-139480922D02*
X178082381Y-138210922D01*
X178082381Y-138210922D02*
X177780000Y-138210922D01*
X177780000Y-138210922D02*
X177598571Y-138271398D01*
X177598571Y-138271398D02*
X177477619Y-138392350D01*
X177477619Y-138392350D02*
X177417142Y-138513303D01*
X177417142Y-138513303D02*
X177356666Y-138755207D01*
X177356666Y-138755207D02*
X177356666Y-138936636D01*
X177356666Y-138936636D02*
X177417142Y-139178541D01*
X177417142Y-139178541D02*
X177477619Y-139299493D01*
X177477619Y-139299493D02*
X177598571Y-139420446D01*
X177598571Y-139420446D02*
X177780000Y-139480922D01*
X177780000Y-139480922D02*
X178082381Y-139480922D01*
X196070238Y-137210922D02*
X195828333Y-137210922D01*
X195828333Y-137210922D02*
X195707381Y-137271398D01*
X195707381Y-137271398D02*
X195586428Y-137392350D01*
X195586428Y-137392350D02*
X195525952Y-137634255D01*
X195525952Y-137634255D02*
X195525952Y-138057588D01*
X195525952Y-138057588D02*
X195586428Y-138299493D01*
X195586428Y-138299493D02*
X195707381Y-138420446D01*
X195707381Y-138420446D02*
X195828333Y-138480922D01*
X195828333Y-138480922D02*
X196070238Y-138480922D01*
X196070238Y-138480922D02*
X196191190Y-138420446D01*
X196191190Y-138420446D02*
X196312143Y-138299493D01*
X196312143Y-138299493D02*
X196372619Y-138057588D01*
X196372619Y-138057588D02*
X196372619Y-137634255D01*
X196372619Y-137634255D02*
X196312143Y-137392350D01*
X196312143Y-137392350D02*
X196191190Y-137271398D01*
X196191190Y-137271398D02*
X196070238Y-137210922D01*
X194437381Y-137634255D02*
X194437381Y-138480922D01*
X194981667Y-137634255D02*
X194981667Y-138299493D01*
X194981667Y-138299493D02*
X194921190Y-138420446D01*
X194921190Y-138420446D02*
X194800238Y-138480922D01*
X194800238Y-138480922D02*
X194618809Y-138480922D01*
X194618809Y-138480922D02*
X194497857Y-138420446D01*
X194497857Y-138420446D02*
X194437381Y-138359969D01*
X194014047Y-137634255D02*
X193530238Y-137634255D01*
X193832619Y-137210922D02*
X193832619Y-138299493D01*
X193832619Y-138299493D02*
X193772142Y-138420446D01*
X193772142Y-138420446D02*
X193651190Y-138480922D01*
X193651190Y-138480922D02*
X193530238Y-138480922D01*
X193106905Y-137634255D02*
X193106905Y-138904255D01*
X193106905Y-137694731D02*
X192985952Y-137634255D01*
X192985952Y-137634255D02*
X192744047Y-137634255D01*
X192744047Y-137634255D02*
X192623095Y-137694731D01*
X192623095Y-137694731D02*
X192562619Y-137755207D01*
X192562619Y-137755207D02*
X192502143Y-137876160D01*
X192502143Y-137876160D02*
X192502143Y-138239017D01*
X192502143Y-138239017D02*
X192562619Y-138359969D01*
X192562619Y-138359969D02*
X192623095Y-138420446D01*
X192623095Y-138420446D02*
X192744047Y-138480922D01*
X192744047Y-138480922D02*
X192985952Y-138480922D01*
X192985952Y-138480922D02*
X193106905Y-138420446D01*
X191413571Y-137634255D02*
X191413571Y-138480922D01*
X191957857Y-137634255D02*
X191957857Y-138299493D01*
X191957857Y-138299493D02*
X191897380Y-138420446D01*
X191897380Y-138420446D02*
X191776428Y-138480922D01*
X191776428Y-138480922D02*
X191594999Y-138480922D01*
X191594999Y-138480922D02*
X191474047Y-138420446D01*
X191474047Y-138420446D02*
X191413571Y-138359969D01*
X190990237Y-137634255D02*
X190506428Y-137634255D01*
X190808809Y-137210922D02*
X190808809Y-138299493D01*
X190808809Y-138299493D02*
X190748332Y-138420446D01*
X190748332Y-138420446D02*
X190627380Y-138480922D01*
X190627380Y-138480922D02*
X190506428Y-138480922D01*
X209567618Y-137171398D02*
X209688571Y-137110922D01*
X209688571Y-137110922D02*
X209869999Y-137110922D01*
X209869999Y-137110922D02*
X210051428Y-137171398D01*
X210051428Y-137171398D02*
X210172380Y-137292350D01*
X210172380Y-137292350D02*
X210232857Y-137413303D01*
X210232857Y-137413303D02*
X210293333Y-137655207D01*
X210293333Y-137655207D02*
X210293333Y-137836636D01*
X210293333Y-137836636D02*
X210232857Y-138078541D01*
X210232857Y-138078541D02*
X210172380Y-138199493D01*
X210172380Y-138199493D02*
X210051428Y-138320446D01*
X210051428Y-138320446D02*
X209869999Y-138380922D01*
X209869999Y-138380922D02*
X209749047Y-138380922D01*
X209749047Y-138380922D02*
X209567618Y-138320446D01*
X209567618Y-138320446D02*
X209507142Y-138259969D01*
X209507142Y-138259969D02*
X209507142Y-137836636D01*
X209507142Y-137836636D02*
X209749047Y-137836636D01*
X208962857Y-138380922D02*
X208962857Y-137110922D01*
X208962857Y-137110922D02*
X208237142Y-138380922D01*
X208237142Y-138380922D02*
X208237142Y-137110922D01*
X207632381Y-138380922D02*
X207632381Y-137110922D01*
X207632381Y-137110922D02*
X207330000Y-137110922D01*
X207330000Y-137110922D02*
X207148571Y-137171398D01*
X207148571Y-137171398D02*
X207027619Y-137292350D01*
X207027619Y-137292350D02*
X206967142Y-137413303D01*
X206967142Y-137413303D02*
X206906666Y-137655207D01*
X206906666Y-137655207D02*
X206906666Y-137836636D01*
X206906666Y-137836636D02*
X206967142Y-138078541D01*
X206967142Y-138078541D02*
X207027619Y-138199493D01*
X207027619Y-138199493D02*
X207148571Y-138320446D01*
X207148571Y-138320446D02*
X207330000Y-138380922D01*
X207330000Y-138380922D02*
X207632381Y-138380922D01*
D11*
X229525952Y-59306959D02*
X229525952Y-60335054D01*
X229525952Y-60335054D02*
X229465475Y-60456006D01*
X229465475Y-60456006D02*
X229404999Y-60516483D01*
X229404999Y-60516483D02*
X229284047Y-60576959D01*
X229284047Y-60576959D02*
X229042142Y-60576959D01*
X229042142Y-60576959D02*
X228921190Y-60516483D01*
X228921190Y-60516483D02*
X228860713Y-60456006D01*
X228860713Y-60456006D02*
X228800237Y-60335054D01*
X228800237Y-60335054D02*
X228800237Y-59306959D01*
X228255952Y-60214102D02*
X227651190Y-60214102D01*
X228376904Y-60576959D02*
X227953571Y-59306959D01*
X227953571Y-59306959D02*
X227530237Y-60576959D01*
X226381190Y-60576959D02*
X226804524Y-59972197D01*
X227106905Y-60576959D02*
X227106905Y-59306959D01*
X227106905Y-59306959D02*
X226623095Y-59306959D01*
X226623095Y-59306959D02*
X226502143Y-59367435D01*
X226502143Y-59367435D02*
X226441666Y-59427911D01*
X226441666Y-59427911D02*
X226381190Y-59548863D01*
X226381190Y-59548863D02*
X226381190Y-59730292D01*
X226381190Y-59730292D02*
X226441666Y-59851244D01*
X226441666Y-59851244D02*
X226502143Y-59911721D01*
X226502143Y-59911721D02*
X226623095Y-59972197D01*
X226623095Y-59972197D02*
X227106905Y-59972197D01*
X226018333Y-59306959D02*
X225292619Y-59306959D01*
X225655476Y-60576959D02*
X225655476Y-59306959D01*
D10*
X226410922Y-56532381D02*
X226410922Y-57258095D01*
X227680922Y-56895238D02*
X226410922Y-56895238D01*
X226410922Y-57560476D02*
X227680922Y-58407143D01*
X226410922Y-58407143D02*
X227680922Y-57560476D01*
X205486429Y-138580922D02*
X205486429Y-137310922D01*
X204881667Y-137734255D02*
X204881667Y-138580922D01*
X204881667Y-137855207D02*
X204821190Y-137794731D01*
X204821190Y-137794731D02*
X204700238Y-137734255D01*
X204700238Y-137734255D02*
X204518809Y-137734255D01*
X204518809Y-137734255D02*
X204397857Y-137794731D01*
X204397857Y-137794731D02*
X204337381Y-137915684D01*
X204337381Y-137915684D02*
X204337381Y-138580922D01*
X203732619Y-137734255D02*
X203732619Y-139004255D01*
X203732619Y-137794731D02*
X203611666Y-137734255D01*
X203611666Y-137734255D02*
X203369761Y-137734255D01*
X203369761Y-137734255D02*
X203248809Y-137794731D01*
X203248809Y-137794731D02*
X203188333Y-137855207D01*
X203188333Y-137855207D02*
X203127857Y-137976160D01*
X203127857Y-137976160D02*
X203127857Y-138339017D01*
X203127857Y-138339017D02*
X203188333Y-138459969D01*
X203188333Y-138459969D02*
X203248809Y-138520446D01*
X203248809Y-138520446D02*
X203369761Y-138580922D01*
X203369761Y-138580922D02*
X203611666Y-138580922D01*
X203611666Y-138580922D02*
X203732619Y-138520446D01*
X202039285Y-137734255D02*
X202039285Y-138580922D01*
X202583571Y-137734255D02*
X202583571Y-138399493D01*
X202583571Y-138399493D02*
X202523094Y-138520446D01*
X202523094Y-138520446D02*
X202402142Y-138580922D01*
X202402142Y-138580922D02*
X202220713Y-138580922D01*
X202220713Y-138580922D02*
X202099761Y-138520446D01*
X202099761Y-138520446D02*
X202039285Y-138459969D01*
X201615951Y-137734255D02*
X201132142Y-137734255D01*
X201434523Y-137310922D02*
X201434523Y-138399493D01*
X201434523Y-138399493D02*
X201374046Y-138520446D01*
X201374046Y-138520446D02*
X201253094Y-138580922D01*
X201253094Y-138580922D02*
X201132142Y-138580922D01*
X219520446Y-128157857D02*
X219580922Y-128339286D01*
X219580922Y-128339286D02*
X219580922Y-128641667D01*
X219580922Y-128641667D02*
X219520446Y-128762619D01*
X219520446Y-128762619D02*
X219459969Y-128823095D01*
X219459969Y-128823095D02*
X219339017Y-128883572D01*
X219339017Y-128883572D02*
X219218065Y-128883572D01*
X219218065Y-128883572D02*
X219097112Y-128823095D01*
X219097112Y-128823095D02*
X219036636Y-128762619D01*
X219036636Y-128762619D02*
X218976160Y-128641667D01*
X218976160Y-128641667D02*
X218915684Y-128399762D01*
X218915684Y-128399762D02*
X218855207Y-128278810D01*
X218855207Y-128278810D02*
X218794731Y-128218333D01*
X218794731Y-128218333D02*
X218673779Y-128157857D01*
X218673779Y-128157857D02*
X218552826Y-128157857D01*
X218552826Y-128157857D02*
X218431874Y-128218333D01*
X218431874Y-128218333D02*
X218371398Y-128278810D01*
X218371398Y-128278810D02*
X218310922Y-128399762D01*
X218310922Y-128399762D02*
X218310922Y-128702143D01*
X218310922Y-128702143D02*
X218371398Y-128883572D01*
X219580922Y-129427857D02*
X218310922Y-129427857D01*
X218310922Y-129427857D02*
X218310922Y-129730238D01*
X218310922Y-129730238D02*
X218371398Y-129911667D01*
X218371398Y-129911667D02*
X218492350Y-130032619D01*
X218492350Y-130032619D02*
X218613303Y-130093096D01*
X218613303Y-130093096D02*
X218855207Y-130153572D01*
X218855207Y-130153572D02*
X219036636Y-130153572D01*
X219036636Y-130153572D02*
X219278541Y-130093096D01*
X219278541Y-130093096D02*
X219399493Y-130032619D01*
X219399493Y-130032619D02*
X219520446Y-129911667D01*
X219520446Y-129911667D02*
X219580922Y-129730238D01*
X219580922Y-129730238D02*
X219580922Y-129427857D01*
X219218065Y-130637381D02*
X219218065Y-131242143D01*
X219580922Y-130516429D02*
X218310922Y-130939762D01*
X218310922Y-130939762D02*
X219580922Y-131363096D01*
D12*
X178545180Y-133157142D02*
X177545180Y-132823809D01*
X177545180Y-132823809D02*
X178545180Y-132490476D01*
X177545180Y-132157142D02*
X178211847Y-132157142D01*
X178021371Y-132157142D02*
X178116609Y-132109523D01*
X178116609Y-132109523D02*
X178164228Y-132061904D01*
X178164228Y-132061904D02*
X178211847Y-131966666D01*
X178211847Y-131966666D02*
X178211847Y-131871428D01*
X177592800Y-131157142D02*
X177545180Y-131252380D01*
X177545180Y-131252380D02*
X177545180Y-131442856D01*
X177545180Y-131442856D02*
X177592800Y-131538094D01*
X177592800Y-131538094D02*
X177688038Y-131585713D01*
X177688038Y-131585713D02*
X178068990Y-131585713D01*
X178068990Y-131585713D02*
X178164228Y-131538094D01*
X178164228Y-131538094D02*
X178211847Y-131442856D01*
X178211847Y-131442856D02*
X178211847Y-131252380D01*
X178211847Y-131252380D02*
X178164228Y-131157142D01*
X178164228Y-131157142D02*
X178068990Y-131109523D01*
X178068990Y-131109523D02*
X177973752Y-131109523D01*
X177973752Y-131109523D02*
X177878514Y-131585713D01*
X178211847Y-130823808D02*
X178211847Y-130442856D01*
X177545180Y-130680951D02*
X178402323Y-130680951D01*
X178402323Y-130680951D02*
X178497561Y-130633332D01*
X178497561Y-130633332D02*
X178545180Y-130538094D01*
X178545180Y-130538094D02*
X178545180Y-130442856D01*
D16*
%TO.C,J22*%
X249979724Y-101500000D02*
G75*
G02*
X249820276Y-101500000I-79724J0D01*
G01*
X249820276Y-101500000D02*
G75*
G02*
X249979724Y-101500000I79724J0D01*
G01*
%TO.C,J23*%
X250002035Y-107900000D02*
G75*
G02*
X249797965Y-107900000I-102035J0D01*
G01*
X249797965Y-107900000D02*
G75*
G02*
X250002035Y-107900000I102035J0D01*
G01*
%TD*%
M02*
