%TF.GenerationSoftware,KiCad,Pcbnew,9.0.2*%
%TF.CreationDate,2026-05-07T19:55:38+03:00*%
%TF.ProjectId,usb_relay_control,7573625f-7265-46c6-9179-5f636f6e7472,rev?*%
%TF.SameCoordinates,Original*%
%TF.FileFunction,Paste,Top*%
%TF.FilePolarity,Positive*%
%FSLAX46Y46*%
G04 Gerber Fmt 4.6, Leading zero omitted, Abs format (unit mm)*
G04 Created by KiCad (PCBNEW 9.0.2) date 2026-05-07 19:55:38*
%MOMM*%
%LPD*%
G01*
G04 APERTURE LIST*
G04 Aperture macros list*
%AMRoundRect*
0 Rectangle with rounded corners*
0 $1 Rounding radius*
0 $2 $3 $4 $5 $6 $7 $8 $9 X,Y pos of 4 corners*
0 Add a 4 corners polygon primitive as box body*
4,1,4,$2,$3,$4,$5,$6,$7,$8,$9,$2,$3,0*
0 Add four circle primitives for the rounded corners*
1,1,$1+$1,$2,$3*
1,1,$1+$1,$4,$5*
1,1,$1+$1,$6,$7*
1,1,$1+$1,$8,$9*
0 Add four rect primitives between the rounded corners*
20,1,$1+$1,$2,$3,$4,$5,0*
20,1,$1+$1,$4,$5,$6,$7,0*
20,1,$1+$1,$6,$7,$8,$9,0*
20,1,$1+$1,$8,$9,$2,$3,0*%
G04 Aperture macros list end*
%ADD10RoundRect,0.250000X1.425000X-0.362500X1.425000X0.362500X-1.425000X0.362500X-1.425000X-0.362500X0*%
%ADD11RoundRect,0.250000X0.475000X-0.250000X0.475000X0.250000X-0.475000X0.250000X-0.475000X-0.250000X0*%
%ADD12RoundRect,0.250000X-0.450000X0.262500X-0.450000X-0.262500X0.450000X-0.262500X0.450000X0.262500X0*%
%ADD13RoundRect,0.250000X0.262500X0.450000X-0.262500X0.450000X-0.262500X-0.450000X0.262500X-0.450000X0*%
%ADD14RoundRect,0.075000X-0.662500X-0.075000X0.662500X-0.075000X0.662500X0.075000X-0.662500X0.075000X0*%
%ADD15RoundRect,0.075000X-0.075000X-0.662500X0.075000X-0.662500X0.075000X0.662500X-0.075000X0.662500X0*%
%ADD16R,0.700000X1.000000*%
%ADD17R,0.700000X0.600000*%
%ADD18R,3.390000X1.120000*%
%ADD19R,2.220000X2.440000*%
%ADD20RoundRect,0.250000X0.450000X-0.262500X0.450000X0.262500X-0.450000X0.262500X-0.450000X-0.262500X0*%
%ADD21RoundRect,0.243750X0.456250X-0.243750X0.456250X0.243750X-0.456250X0.243750X-0.456250X-0.243750X0*%
%ADD22RoundRect,0.250000X-0.262500X-0.450000X0.262500X-0.450000X0.262500X0.450000X-0.262500X0.450000X0*%
%ADD23R,1.000000X0.700000*%
%ADD24R,0.600000X0.700000*%
%ADD25R,1.333500X0.279400*%
%ADD26RoundRect,0.111600X-0.878400X-0.353400X0.878400X-0.353400X0.878400X0.353400X-0.878400X0.353400X0*%
%ADD27RoundRect,0.792000X-0.198000X-0.823000X0.198000X-0.823000X0.198000X0.823000X-0.198000X0.823000X0*%
%ADD28RoundRect,0.150000X0.825000X0.150000X-0.825000X0.150000X-0.825000X-0.150000X0.825000X-0.150000X0*%
%ADD29RoundRect,0.150000X-0.587500X-0.150000X0.587500X-0.150000X0.587500X0.150000X-0.587500X0.150000X0*%
%ADD30R,1.300000X1.700000*%
%ADD31R,1.400000X1.200000*%
%ADD32RoundRect,0.250000X0.250000X0.475000X-0.250000X0.475000X-0.250000X-0.475000X0.250000X-0.475000X0*%
%ADD33R,0.900000X1.700000*%
%ADD34RoundRect,0.250000X-0.475000X0.250000X-0.475000X-0.250000X0.475000X-0.250000X0.475000X0.250000X0*%
%ADD35RoundRect,0.250000X0.362500X1.075000X-0.362500X1.075000X-0.362500X-1.075000X0.362500X-1.075000X0*%
%ADD36R,2.000000X0.500000*%
%ADD37R,1.700000X2.000000*%
%ADD38RoundRect,0.218750X0.218750X0.381250X-0.218750X0.381250X-0.218750X-0.381250X0.218750X-0.381250X0*%
%ADD39R,1.100000X0.550000*%
%ADD40RoundRect,0.250000X-0.250000X-0.475000X0.250000X-0.475000X0.250000X0.475000X-0.250000X0.475000X0*%
%ADD41R,1.100000X1.400000*%
%ADD42RoundRect,0.218750X-0.381250X0.218750X-0.381250X-0.218750X0.381250X-0.218750X0.381250X0.218750X0*%
%ADD43RoundRect,0.250000X0.362500X1.425000X-0.362500X1.425000X-0.362500X-1.425000X0.362500X-1.425000X0*%
%ADD44RoundRect,0.218750X0.218750X0.256250X-0.218750X0.256250X-0.218750X-0.256250X0.218750X-0.256250X0*%
%ADD45RoundRect,0.243750X0.243750X0.456250X-0.243750X0.456250X-0.243750X-0.456250X0.243750X-0.456250X0*%
%ADD46RoundRect,0.243750X-0.243750X-0.456250X0.243750X-0.456250X0.243750X0.456250X-0.243750X0.456250X0*%
%ADD47RoundRect,0.150000X0.587500X0.150000X-0.587500X0.150000X-0.587500X-0.150000X0.587500X-0.150000X0*%
%ADD48RoundRect,0.243750X-0.456250X0.243750X-0.456250X-0.243750X0.456250X-0.243750X0.456250X0.243750X0*%
%ADD49RoundRect,0.250000X1.075000X-0.362500X1.075000X0.362500X-1.075000X0.362500X-1.075000X-0.362500X0*%
%ADD50RoundRect,0.218750X0.381250X-0.218750X0.381250X0.218750X-0.381250X0.218750X-0.381250X-0.218750X0*%
G04 APERTURE END LIST*
D10*
%TO.C,R22*%
X182900000Y-108262500D03*
X182900000Y-102337500D03*
%TD*%
D11*
%TO.C,C5*%
X220650000Y-85525000D03*
X220650000Y-83625000D03*
%TD*%
D12*
%TO.C,R28*%
X212250000Y-120562500D03*
X212250000Y-122387500D03*
%TD*%
D13*
%TO.C,R5*%
X203812500Y-88500000D03*
X201987500Y-88500000D03*
%TD*%
D14*
%TO.C,U1*%
X223087500Y-87500000D03*
X223087500Y-88000000D03*
X223087500Y-88500000D03*
X223087500Y-89000000D03*
X223087500Y-89500000D03*
X223087500Y-90000000D03*
X223087500Y-90500000D03*
X223087500Y-91000000D03*
X223087500Y-91500000D03*
X223087500Y-92000000D03*
X223087500Y-92500000D03*
X223087500Y-93000000D03*
D15*
X224500000Y-94412500D03*
X225000000Y-94412500D03*
X225500000Y-94412500D03*
X226000000Y-94412500D03*
X226500000Y-94412500D03*
X227000000Y-94412500D03*
X227500000Y-94412500D03*
X228000000Y-94412500D03*
X228500000Y-94412500D03*
X229000000Y-94412500D03*
X229500000Y-94412500D03*
X230000000Y-94412500D03*
D14*
X231412500Y-93000000D03*
X231412500Y-92500000D03*
X231412500Y-92000000D03*
X231412500Y-91500000D03*
X231412500Y-91000000D03*
X231412500Y-90500000D03*
X231412500Y-90000000D03*
X231412500Y-89500000D03*
X231412500Y-89000000D03*
X231412500Y-88500000D03*
X231412500Y-88000000D03*
X231412500Y-87500000D03*
D15*
X230000000Y-86087500D03*
X229500000Y-86087500D03*
X229000000Y-86087500D03*
X228500000Y-86087500D03*
X228000000Y-86087500D03*
X227500000Y-86087500D03*
X227000000Y-86087500D03*
X226500000Y-86087500D03*
X226000000Y-86087500D03*
X225500000Y-86087500D03*
X225000000Y-86087500D03*
X224500000Y-86087500D03*
%TD*%
D16*
%TO.C,D19*%
X182900000Y-77350000D03*
D17*
X182900000Y-75650000D03*
X180900000Y-75650000D03*
X180900000Y-77550000D03*
%TD*%
D18*
%TO.C,J11*%
X177832500Y-80300000D03*
X177832500Y-82800000D03*
X177832500Y-84800000D03*
X177832500Y-87300000D03*
D19*
X174152500Y-76130000D03*
X174152500Y-91470000D03*
%TD*%
D20*
%TO.C,R33*%
X191225000Y-72112500D03*
X191225000Y-70287500D03*
%TD*%
D21*
%TO.C,F3*%
X177500000Y-117337500D03*
X177500000Y-115462500D03*
%TD*%
D22*
%TO.C,R10*%
X246787500Y-127275000D03*
X248612500Y-127275000D03*
%TD*%
D12*
%TO.C,R35*%
X252850000Y-126862500D03*
X252850000Y-128687500D03*
%TD*%
D23*
%TO.C,D18*%
X166450000Y-111900000D03*
D24*
X168150000Y-111900000D03*
X168150000Y-109900000D03*
X166250000Y-109900000D03*
%TD*%
D25*
%TO.C,U2*%
X188846350Y-101749999D03*
X188846350Y-102250001D03*
X188846350Y-102750000D03*
X188846350Y-103249999D03*
X188846350Y-103750001D03*
X193278650Y-103750001D03*
X193278650Y-103249999D03*
X193278650Y-102750000D03*
X193278650Y-102250001D03*
X193278650Y-101749999D03*
%TD*%
D26*
%TO.C,IC1*%
X246985000Y-69200000D03*
X246985000Y-71500000D03*
X246985000Y-73800000D03*
D27*
X253015000Y-71500000D03*
%TD*%
D28*
%TO.C,U3*%
X201875000Y-71330000D03*
X201875000Y-70060000D03*
X201875000Y-68790000D03*
X201875000Y-67520000D03*
X196925000Y-67520000D03*
X196925000Y-68790000D03*
X196925000Y-70060000D03*
X196925000Y-71330000D03*
%TD*%
D29*
%TO.C,Q1*%
X215262500Y-119850000D03*
X215262500Y-121750000D03*
X217137500Y-120800000D03*
%TD*%
D11*
%TO.C,C28*%
X184050000Y-71675000D03*
X184050000Y-69775000D03*
%TD*%
D30*
%TO.C,D6*%
X219350000Y-116400000D03*
X215850000Y-116400000D03*
%TD*%
D31*
%TO.C,Y1*%
X209600000Y-83050000D03*
X211800000Y-83050000D03*
X211800000Y-81450000D03*
X209600000Y-81450000D03*
%TD*%
D13*
%TO.C,R39*%
X246187500Y-97075000D03*
X244362500Y-97075000D03*
%TD*%
D20*
%TO.C,R12*%
X247475000Y-131862500D03*
X247475000Y-130037500D03*
%TD*%
%TO.C,R15*%
X187500000Y-123312500D03*
X187500000Y-121487500D03*
%TD*%
D32*
%TO.C,C20*%
X218075000Y-108750000D03*
X216175000Y-108750000D03*
%TD*%
D13*
%TO.C,R4*%
X203682500Y-82900000D03*
X201857500Y-82900000D03*
%TD*%
D33*
%TO.C,SW1*%
X236200000Y-53700000D03*
X239600000Y-53700000D03*
%TD*%
D32*
%TO.C,C12*%
X235750000Y-66100000D03*
X233850000Y-66100000D03*
%TD*%
D34*
%TO.C,C9*%
X231200000Y-96650000D03*
X231200000Y-98550000D03*
%TD*%
D35*
%TO.C,R9*%
X242112500Y-110500000D03*
X237487500Y-110500000D03*
%TD*%
D16*
%TO.C,D5*%
X242000000Y-88250000D03*
D17*
X242000000Y-86550000D03*
X240000000Y-86550000D03*
X240000000Y-88450000D03*
%TD*%
D13*
%TO.C,R38*%
X183112500Y-121600000D03*
X181287500Y-121600000D03*
%TD*%
D36*
%TO.C,J2*%
X246900000Y-86200000D03*
X246900000Y-85400000D03*
X246900000Y-84600000D03*
X246900000Y-83800000D03*
X246900000Y-83000000D03*
D37*
X247000000Y-89050000D03*
X252450000Y-89050000D03*
X247000000Y-80150000D03*
X252450000Y-80150000D03*
%TD*%
D23*
%TO.C,D10*%
X181150000Y-69675000D03*
D24*
X179450000Y-69675000D03*
X179450000Y-71675000D03*
X181350000Y-71675000D03*
%TD*%
D38*
%TO.C,FB3*%
X235862500Y-68900000D03*
X233737500Y-68900000D03*
%TD*%
D39*
%TO.C,IC2*%
X191700000Y-88800000D03*
X191700000Y-89750000D03*
X191700000Y-90700000D03*
X194300000Y-90700000D03*
X194300000Y-89750000D03*
X194300000Y-88800000D03*
%TD*%
D36*
%TO.C,J9*%
X173275000Y-65900000D03*
X173275000Y-66700000D03*
X173275000Y-67500000D03*
X173275000Y-68300000D03*
X173275000Y-69100000D03*
D37*
X173175000Y-63050000D03*
X167725000Y-63050000D03*
X173175000Y-71950000D03*
X167725000Y-71950000D03*
%TD*%
D13*
%TO.C,R23*%
X233112500Y-104600000D03*
X231287500Y-104600000D03*
%TD*%
D34*
%TO.C,C34*%
X209050000Y-69050000D03*
X209050000Y-70950000D03*
%TD*%
D40*
%TO.C,C19*%
X189550000Y-74750000D03*
X191450000Y-74750000D03*
%TD*%
D13*
%TO.C,R17*%
X233212500Y-107600000D03*
X231387500Y-107600000D03*
%TD*%
D21*
%TO.C,F1*%
X213050000Y-70687500D03*
X213050000Y-68812500D03*
%TD*%
D22*
%TO.C,R6*%
X197887500Y-100750000D03*
X199712500Y-100750000D03*
%TD*%
D12*
%TO.C,R37*%
X246300000Y-101637500D03*
X246300000Y-103462500D03*
%TD*%
D36*
%TO.C,J8*%
X172950000Y-117400000D03*
X172950000Y-118200000D03*
X172950000Y-119000000D03*
X172950000Y-119800000D03*
X172950000Y-120600000D03*
D37*
X172850000Y-114550000D03*
X167400000Y-114550000D03*
X172850000Y-123450000D03*
X167400000Y-123450000D03*
%TD*%
D32*
%TO.C,C6*%
X242850000Y-73500000D03*
X240950000Y-73500000D03*
%TD*%
D22*
%TO.C,R30*%
X246737500Y-125000000D03*
X248562500Y-125000000D03*
%TD*%
D41*
%TO.C,D12*%
X181550000Y-124100000D03*
X179250000Y-124100000D03*
%TD*%
D34*
%TO.C,C8*%
X235500000Y-83550000D03*
X235500000Y-85450000D03*
%TD*%
D42*
%TO.C,FB1*%
X234000000Y-78500000D03*
X234000000Y-80625000D03*
%TD*%
D34*
%TO.C,C7*%
X233400000Y-97150000D03*
X233400000Y-99050000D03*
%TD*%
D43*
%TO.C,R21*%
X186962500Y-88500000D03*
X181037500Y-88500000D03*
%TD*%
D41*
%TO.C,D14*%
X252425000Y-131100000D03*
X250125000Y-131100000D03*
%TD*%
D44*
%TO.C,F5*%
X250487500Y-92200000D03*
X248912500Y-92200000D03*
%TD*%
D45*
%TO.C,D4*%
X203837500Y-91300000D03*
X201962500Y-91300000D03*
%TD*%
D20*
%TO.C,R25*%
X190325000Y-84062500D03*
X190325000Y-82237500D03*
%TD*%
D45*
%TO.C,D16*%
X184362500Y-84350000D03*
X182487500Y-84350000D03*
%TD*%
D40*
%TO.C,C17*%
X204250000Y-99400000D03*
X206150000Y-99400000D03*
%TD*%
D44*
%TO.C,F4*%
X250487500Y-94600000D03*
X248912500Y-94600000D03*
%TD*%
D32*
%TO.C,C21*%
X194600000Y-82825000D03*
X192700000Y-82825000D03*
%TD*%
D11*
%TO.C,C4*%
X231250000Y-77700000D03*
X231250000Y-75800000D03*
%TD*%
D46*
%TO.C,F2*%
X181062500Y-67000000D03*
X182937500Y-67000000D03*
%TD*%
D11*
%TO.C,C1*%
X207100000Y-83450000D03*
X207100000Y-81550000D03*
%TD*%
D40*
%TO.C,C31*%
X211850000Y-104500000D03*
X213750000Y-104500000D03*
%TD*%
D25*
%TO.C,U4*%
X214783850Y-111499999D03*
X214783850Y-112000001D03*
X214783850Y-112500000D03*
X214783850Y-112999999D03*
X214783850Y-113500001D03*
X219216150Y-113500001D03*
X219216150Y-112999999D03*
X219216150Y-112500000D03*
X219216150Y-112000001D03*
X219216150Y-111499999D03*
%TD*%
D45*
%TO.C,D1*%
X253137500Y-77250000D03*
X251262500Y-77250000D03*
%TD*%
D44*
%TO.C,F6*%
X220987500Y-52000000D03*
X219412500Y-52000000D03*
%TD*%
D33*
%TO.C,SW2*%
X242050000Y-53700000D03*
X245450000Y-53700000D03*
%TD*%
D11*
%TO.C,C10*%
X241450000Y-78150000D03*
X241450000Y-76250000D03*
%TD*%
D22*
%TO.C,R45*%
X237062500Y-106350000D03*
X238887500Y-106350000D03*
%TD*%
D20*
%TO.C,R13*%
X212250000Y-125912500D03*
X212250000Y-124087500D03*
%TD*%
D12*
%TO.C,R24*%
X222400000Y-120687500D03*
X222400000Y-122512500D03*
%TD*%
D13*
%TO.C,R40*%
X246137500Y-94550000D03*
X244312500Y-94550000D03*
%TD*%
D40*
%TO.C,C33*%
X239050000Y-95950000D03*
X240950000Y-95950000D03*
%TD*%
D47*
%TO.C,Q2*%
X217662500Y-125225000D03*
X217662500Y-123325000D03*
X215787500Y-124275000D03*
%TD*%
D20*
%TO.C,R14*%
X222400000Y-126112500D03*
X222400000Y-124287500D03*
%TD*%
D22*
%TO.C,R26*%
X210825000Y-99500000D03*
X212650000Y-99500000D03*
%TD*%
D34*
%TO.C,C23*%
X252850000Y-123350000D03*
X252850000Y-125250000D03*
%TD*%
D48*
%TO.C,D13*%
X247200000Y-116662500D03*
X247200000Y-118537500D03*
%TD*%
D22*
%TO.C,R1*%
X247287500Y-77000000D03*
X249112500Y-77000000D03*
%TD*%
D32*
%TO.C,C14*%
X235750000Y-59900000D03*
X233850000Y-59900000D03*
%TD*%
D40*
%TO.C,C32*%
X233900000Y-100950000D03*
X235800000Y-100950000D03*
%TD*%
D39*
%TO.C,IC3*%
X191100000Y-77750000D03*
X191100000Y-78700000D03*
X191100000Y-79650000D03*
X193700000Y-79650000D03*
X193700000Y-78700000D03*
X193700000Y-77750000D03*
%TD*%
D40*
%TO.C,C30*%
X184750000Y-78200000D03*
X186650000Y-78200000D03*
%TD*%
D22*
%TO.C,R32*%
X182687500Y-97200000D03*
X184512500Y-97200000D03*
%TD*%
%TO.C,R31*%
X182487500Y-81500000D03*
X184312500Y-81500000D03*
%TD*%
%TO.C,R43*%
X169337500Y-127000000D03*
X171162500Y-127000000D03*
%TD*%
D49*
%TO.C,R7*%
X188450000Y-138062500D03*
X188450000Y-133437500D03*
%TD*%
D41*
%TO.C,D11*%
X209350000Y-102500000D03*
X207050000Y-102500000D03*
%TD*%
D20*
%TO.C,R34*%
X188200000Y-72112500D03*
X188200000Y-70287500D03*
%TD*%
D32*
%TO.C,C2*%
X212000000Y-78925000D03*
X210100000Y-78925000D03*
%TD*%
D20*
%TO.C,R29*%
X217200000Y-105412500D03*
X217200000Y-103587500D03*
%TD*%
D45*
%TO.C,D8*%
X187562500Y-116400000D03*
X185687500Y-116400000D03*
%TD*%
D11*
%TO.C,C16*%
X229000000Y-69550000D03*
X229000000Y-67650000D03*
%TD*%
%TO.C,C11*%
X213000000Y-89050000D03*
X213000000Y-87150000D03*
%TD*%
D32*
%TO.C,C27*%
X194375000Y-85850000D03*
X192475000Y-85850000D03*
%TD*%
D20*
%TO.C,R2*%
X226100000Y-64312500D03*
X226100000Y-62487500D03*
%TD*%
D22*
%TO.C,R46*%
X240387500Y-82850000D03*
X242212500Y-82850000D03*
%TD*%
%TO.C,R44*%
X235937500Y-92650000D03*
X237762500Y-92650000D03*
%TD*%
D11*
%TO.C,C24*%
X187825000Y-94550000D03*
X187825000Y-92650000D03*
%TD*%
D18*
%TO.C,J12*%
X177832500Y-98700000D03*
X177832500Y-101200000D03*
X177832500Y-103200000D03*
X177832500Y-105700000D03*
D19*
X174152500Y-94530000D03*
X174152500Y-109870000D03*
%TD*%
D30*
%TO.C,D7*%
X219500000Y-128500000D03*
X216000000Y-128500000D03*
%TD*%
D40*
%TO.C,C25*%
X195875000Y-103450000D03*
X197775000Y-103450000D03*
%TD*%
D20*
%TO.C,R16*%
X219350000Y-105412500D03*
X219350000Y-103587500D03*
%TD*%
D45*
%TO.C,D3*%
X203737500Y-85600000D03*
X201862500Y-85600000D03*
%TD*%
D20*
%TO.C,R18*%
X179600000Y-134912500D03*
X179600000Y-133087500D03*
%TD*%
D32*
%TO.C,C18*%
X192050000Y-99525000D03*
X190150000Y-99525000D03*
%TD*%
D13*
%TO.C,R3*%
X203682500Y-77300000D03*
X201857500Y-77300000D03*
%TD*%
D11*
%TO.C,C3*%
X222725000Y-85525000D03*
X222725000Y-83625000D03*
%TD*%
D22*
%TO.C,R36*%
X244312500Y-99650000D03*
X246137500Y-99650000D03*
%TD*%
%TO.C,R42*%
X167262500Y-60250000D03*
X169087500Y-60250000D03*
%TD*%
D13*
%TO.C,R27*%
X248212500Y-122000000D03*
X246387500Y-122000000D03*
%TD*%
D34*
%TO.C,C35*%
X205550000Y-69050000D03*
X205550000Y-70950000D03*
%TD*%
D45*
%TO.C,D17*%
X184612500Y-99500000D03*
X182737500Y-99500000D03*
%TD*%
D11*
%TO.C,C22*%
X186300000Y-67850000D03*
X186300000Y-65950000D03*
%TD*%
D50*
%TO.C,FB2*%
X244300000Y-82862500D03*
X244300000Y-80737500D03*
%TD*%
D12*
%TO.C,R11*%
X187300000Y-125337500D03*
X187300000Y-127162500D03*
%TD*%
D22*
%TO.C,R41*%
X242662500Y-91300000D03*
X244487500Y-91300000D03*
%TD*%
D32*
%TO.C,C15*%
X235750000Y-63000000D03*
X233850000Y-63000000D03*
%TD*%
D45*
%TO.C,D2*%
X203637500Y-79900000D03*
X201762500Y-79900000D03*
%TD*%
D16*
%TO.C,D9*%
X180700000Y-92650000D03*
D17*
X180700000Y-94350000D03*
X182700000Y-94350000D03*
X182700000Y-92450000D03*
%TD*%
D13*
%TO.C,R20*%
X182962500Y-127200000D03*
X181137500Y-127200000D03*
%TD*%
D40*
%TO.C,C26*%
X181250000Y-118500000D03*
X183150000Y-118500000D03*
%TD*%
D12*
%TO.C,R19*%
X182000000Y-133087500D03*
X182000000Y-134912500D03*
%TD*%
D20*
%TO.C,R8*%
X187300000Y-130712500D03*
X187300000Y-128887500D03*
%TD*%
D40*
%TO.C,C29*%
X190450000Y-108075000D03*
X192350000Y-108075000D03*
%TD*%
D11*
%TO.C,C13*%
X216250000Y-89050000D03*
X216250000Y-87150000D03*
%TD*%
M02*
